<?xml version="1.0" standalone="no"?>
<!DOCTYPE svg PUBLIC "-//W3C//DTD SVG 1.1//EN" "http://www.w3.org/Graphics/SVG/1.1/DTD/svg11.dtd">
<svg width="72mm" height="32mm" viewBox="-32 -21 72 32" xmlns="http://www.w3.org/2000/svg" version="1.1">
<title>OpenSCAD Model</title>
<path d="
M 26.4382,10.9288 L 26.9639,10.8418 L 27.4582,10.6996 L 27.9068,10.5063 L 28.2965,10.2677 L 28.6159,9.99074
 L 28.8556,9.6835 L 29.0086,9.35501 L 30.1406,9.35501 L 34.9031,-3.34497 L 35.6946,-3.34497 L 35.826,-2.93672
 L 36.0424,-2.56648 L 36.3337,-2.25174 L 36.6861,-2.00735 L 37.083,-1.84485 L 37.5056,-1.77191 L 37.934,-1.79196
 L 38.348,-1.9041 L 38.7279,-2.10298 L 39.056,-2.37924 L 39.3166,-2.71983 L 39.4975,-3.10867 L 39.5901,-3.52742
 L 39.5901,-3.95628 L 39.4975,-4.37502 L 39.3166,-4.76387 L 39.056,-5.10446 L 38.7279,-5.38072 L 38.348,-5.57961
 L 37.934,-5.69173 L 37.5056,-5.71179 L 37.083,-5.63885 L 36.6861,-5.47635 L 36.3337,-5.23195 L 36.0424,-4.91721
 L 35.826,-4.54697 L 35.6946,-4.13872 L 34.9031,-4.13872 L 30.1406,-16.8387 L 29.0086,-16.8387 L 28.8556,-17.1672
 L 28.6159,-17.4744 L 28.2965,-17.7514 L 27.9068,-17.99 L 27.4582,-18.1833 L 26.9639,-18.3255 L 26.4382,-18.4126
 L 25.8968,-18.4418 L 25.3553,-18.4126 L 24.8297,-18.3255 L 24.3354,-18.1833 L 23.8868,-17.99 L 23.4971,-17.7514
 L 23.1777,-17.4744 L 22.938,-17.1672 L 22.7849,-16.8387 L 20.1077,-16.8387 L 20.005,-16.8522 L 19.9093,-16.8919
 L 19.8271,-16.955 L 19.764,-17.0372 L 19.7244,-17.1329 L 19.7108,-17.2356 L 19.7108,-18.8231 L 19.6703,-19.1313
 L 19.5513,-19.4184 L 19.3621,-19.665 L 19.1155,-19.8542 L 18.8284,-19.9732 L 18.5202,-20.0137 L 18.2121,-19.9732
 L 17.9249,-19.8542 L 17.6783,-19.665 L 17.4891,-19.4184 L 17.3702,-19.1313 L 17.3296,-18.8231 L 17.3296,-17.2356
 L 17.3161,-17.1329 L 17.2764,-17.0372 L 17.2134,-16.955 L 17.1312,-16.8919 L 17.0354,-16.8522 L 16.9327,-16.8387
 L 16.83,-16.8522 L 16.7343,-16.8919 L 16.6521,-16.955 L 16.589,-17.0372 L 16.5494,-17.1329 L 16.5359,-17.2356
 L 16.5359,-18.8231 L 16.4953,-19.1313 L 16.3763,-19.4184 L 16.1871,-19.665 L 15.9405,-19.8542 L 15.6534,-19.9732
 L 15.3452,-20.0137 L 15.0371,-19.9732 L 14.7499,-19.8542 L 14.5033,-19.665 L 14.3141,-19.4184 L 14.1952,-19.1313
 L 14.1546,-18.8231 L 14.1546,-17.2356 L 14.1411,-17.1329 L 14.1014,-17.0372 L 14.0384,-16.955 L 13.9562,-16.8919
 L 13.8604,-16.8522 L 13.7577,-16.8387 L 9.78897,-16.8387 L 9.78897,-13.6637 L 7.40773,-13.6637 L 7.30501,-13.6772
 L 7.20929,-13.7169 L 7.12709,-13.78 L 7.06403,-13.8622 L 7.02437,-13.9579 L 7.01085,-14.0606 L 7.01085,-15.6481
 L 6.97028,-15.9563 L 6.85133,-16.2434 L 6.66212,-16.49 L 6.41554,-16.6792 L 6.12839,-16.7982 L 5.82022,-16.8387
 L 5.51207,-16.7982 L 5.22491,-16.6792 L 4.97833,-16.49 L 4.78911,-16.2434 L 4.67017,-15.9563 L 4.62961,-15.6481
 L 4.62961,-14.0606 L 4.61607,-13.9579 L 4.57643,-13.8622 L 4.51335,-13.78 L 4.43117,-13.7169 L 4.33545,-13.6772
 L 4.23273,-13.6637 L 4.13,-13.6772 L 4.03429,-13.7169 L 3.95209,-13.78 L 3.88902,-13.8622 L 3.84938,-13.9579
 L 3.83585,-14.0606 L 3.83585,-15.6481 L 3.79529,-15.9563 L 3.67633,-16.2434 L 3.48712,-16.49 L 3.24054,-16.6792
 L 2.95338,-16.7982 L 2.64523,-16.8387 L 2.33707,-16.7982 L 2.04991,-16.6792 L 1.80333,-16.49 L 1.61412,-16.2434
 L 1.49516,-15.9563 L 1.45461,-15.6481 L 1.45461,-14.0606 L 1.44107,-13.9579 L 1.40143,-13.8622 L 1.33836,-13.78
 L 1.25616,-13.7169 L 1.16045,-13.6772 L 1.05772,-13.6637 L -2.91101,-13.6637 L -2.91101,-10.4887 L -5.29227,-10.4887
 L -5.39497,-10.5022 L -5.49069,-10.5419 L -5.57289,-10.605 L -5.63596,-10.6872 L -5.67561,-10.7829 L -5.68913,-10.8856
 L -5.68913,-12.4731 L -5.72971,-12.7812 L -5.84865,-13.0684 L -6.03786,-13.315 L -6.28445,-13.5042 L -6.57161,-13.6232
 L -6.87976,-13.6637 L -7.18791,-13.6232 L -7.47507,-13.5042 L -7.72166,-13.315 L -7.91087,-13.0684 L -8.02982,-12.7812
 L -8.07039,-12.4731 L -8.07039,-10.8856 L -8.08391,-10.7829 L -8.12355,-10.6872 L -8.18663,-10.605 L -8.26883,-10.5419
 L -8.36455,-10.5022 L -8.46725,-10.4887 L -8.56998,-10.5022 L -8.6657,-10.5419 L -8.74789,-10.605 L -8.81096,-10.6872
 L -8.85062,-10.7829 L -8.86414,-10.8856 L -8.86414,-12.4731 L -8.90471,-12.7812 L -9.02365,-13.0684 L -9.21286,-13.315
 L -9.45944,-13.5042 L -9.7466,-13.6232 L -10.0548,-13.6637 L -10.3629,-13.6232 L -10.6501,-13.5042 L -10.8967,-13.315
 L -11.0859,-13.0684 L -11.2048,-12.7812 L -11.2454,-12.4731 L -11.2454,-10.8856 L -11.2589,-10.7829 L -11.2986,-10.6872
 L -11.3616,-10.605 L -11.4438,-10.5419 L -11.5395,-10.5022 L -11.6423,-10.4887 L -15.611,-10.4887 L -15.611,-7.31372
 L -17.9923,-7.31372 L -18.095,-7.32724 L -18.1907,-7.3669 L -18.2729,-7.42996 L -18.336,-7.51216 L -18.3756,-7.60788
 L -18.3891,-7.7106 L -18.3891,-9.2981 L -18.4297,-9.60626 L -18.5486,-9.89342 L -18.7379,-10.14 L -18.9845,-10.3292
 L -19.2716,-10.4482 L -19.5798,-10.4887 L -19.8879,-10.4482 L -20.1751,-10.3292 L -20.4217,-10.14 L -20.6109,-9.89342
 L -20.7298,-9.60626 L -20.7704,-9.2981 L -20.7704,-7.7106 L -20.7839,-7.60788 L -20.8236,-7.51216 L -20.8866,-7.42996
 L -20.9688,-7.3669 L -21.0645,-7.32724 L -21.1673,-7.31372 L -21.27,-7.32724 L -21.3657,-7.3669 L -21.4479,-7.42996
 L -21.511,-7.51216 L -21.5506,-7.60788 L -21.5641,-7.7106 L -21.5641,-9.2981 L -21.6047,-9.60626 L -21.7236,-9.89342
 L -21.9129,-10.14 L -22.1595,-10.3292 L -22.4466,-10.4482 L -22.7548,-10.4887 L -23.0629,-10.4482 L -23.3501,-10.3292
 L -23.5967,-10.14 L -23.7859,-9.89342 L -23.9048,-9.60626 L -23.9454,-9.2981 L -23.9454,-7.7106 L -23.9589,-7.60788
 L -23.9986,-7.51216 L -24.0616,-7.42996 L -24.1438,-7.3669 L -24.2395,-7.32724 L -24.3423,-7.31372 L -27.5173,-7.31372
 L -27.6734,-7.33427 L -27.8188,-7.39453 L -27.9437,-7.49037 L -28.0396,-7.61528 L -28.0998,-7.76074 L -28.1204,-7.91685
 L -28.1204,-8.94176 L -27.9659,-8.96509 L -27.586,-9.05649 L -27.4314,-9.10832 L -27.0792,-9.26118 L -26.9298,-9.34222
 L -26.6151,-9.54976 L -26.4764,-9.65965 L -26.2073,-9.91367 L -26.0851,-10.051 L -25.8679,-10.3421 L -25.7676,-10.5043
 L -25.6071,-10.8224 L -25.5337,-11.0059 L -25.4325,-11.3403 L -25.3905,-11.5405 L -25.3493,-11.8805 L -25.3423,-12.0918
 L -25.36,-12.427 L -25.3905,-12.6432 L -25.4643,-12.9635 L -25.5337,-13.1778 L -25.659,-13.4742 L -25.7676,-13.6794
 L -25.9384,-13.9439 L -26.0851,-14.1327 L -26.2943,-14.3588 L -26.4764,-14.524 L -26.716,-14.7065 L -26.9298,-14.8415
 L -27.1911,-14.9766 L -27.4314,-15.0754 L -27.7055,-15.1613 L -27.9659,-15.2186 L -28.244,-15.2551 L -28.5173,-15.2668
 L -28.7905,-15.2551 L -29.0686,-15.2186 L -29.329,-15.1613 L -29.6032,-15.0754 L -29.8434,-14.9766 L -30.1048,-14.8415
 L -30.3185,-14.7065 L -30.5581,-14.524 L -30.7402,-14.3588 L -30.9494,-14.1327 L -31.0961,-13.9439 L -31.2669,-13.6794
 L -31.3755,-13.4742 L -31.5008,-13.1778 L -31.5703,-12.9635 L -31.644,-12.6432 L -31.6745,-12.427 L -31.6923,-12.0918
 L -31.6852,-11.8805 L -31.644,-11.5405 L -31.602,-11.3403 L -31.5008,-11.0059 L -31.4274,-10.8224 L -31.2669,-10.5043
 L -31.1666,-10.3421 L -30.9494,-10.051 L -30.8273,-9.91367 L -30.5581,-9.65965 L -30.4195,-9.54976 L -30.1048,-9.34222
 L -29.9553,-9.26118 L -29.6032,-9.10832 L -29.4485,-9.05649 L -29.0686,-8.96509 L -28.9141,-8.94176 L -28.9141,-7.91685
 L -28.8665,-7.55531 L -28.727,-7.21841 L -28.505,-6.92911 L -28.2157,-6.70712 L -27.8788,-6.56757 L -27.5173,-6.51997
 L -24.3423,-6.51997 L -24.0341,-6.56055 L -23.7469,-6.67949 L -23.5004,-6.8687 L -23.3111,-7.11528 L -23.1922,-7.40245
 L -23.1516,-7.7106 L -23.1516,-9.2981 L -23.1381,-9.40082 L -23.0985,-9.49654 L -23.0354,-9.57874 L -22.9532,-9.6418
 L -22.8575,-9.68146 L -22.7548,-9.69498 L -22.652,-9.68146 L -22.5563,-9.6418 L -22.4741,-9.57874 L -22.4111,-9.49654
 L -22.3714,-9.40082 L -22.3579,-9.2981 L -22.3579,-7.7106 L -22.3173,-7.40245 L -22.1984,-7.11528 L -22.0092,-6.8687
 L -21.7626,-6.67949 L -21.4754,-6.56055 L -21.1673,-6.51997 L -20.8591,-6.56055 L -20.5719,-6.67949 L -20.3254,-6.8687
 L -20.1362,-7.11528 L -20.0172,-7.40245 L -19.9766,-7.7106 L -19.9766,-9.2981 L -19.9631,-9.40082 L -19.9235,-9.49654
 L -19.8604,-9.57874 L -19.7782,-9.6418 L -19.6825,-9.68146 L -19.5798,-9.69498 L -19.477,-9.68146 L -19.3813,-9.6418
 L -19.2991,-9.57874 L -19.2361,-9.49654 L -19.1964,-9.40082 L -19.1829,-9.2981 L -19.1829,-7.7106 L -19.1423,-7.40245
 L -19.0234,-7.11528 L -18.8342,-6.8687 L -18.5876,-6.67949 L -18.3004,-6.56055 L -17.9923,-6.51997 L -15.611,-6.51997
 L -15.611,-0.96373 L -17.9923,-0.96373 L -18.095,-0.977249 L -18.1907,-1.01689 L -18.2729,-1.07997 L -18.336,-1.16216
 L -18.3756,-1.25787 L -18.3891,-1.3606 L -18.3891,-2.9481 L -18.4297,-3.25626 L -18.5486,-3.54341 L -18.7379,-3.78999
 L -18.9845,-3.97922 L -19.2716,-4.09816 L -19.5798,-4.13872 L -19.8879,-4.09816 L -20.1751,-3.97922 L -20.4217,-3.78999
 L -20.6109,-3.54341 L -20.7298,-3.25626 L -20.7704,-2.9481 L -20.7704,-1.3606 L -20.7839,-1.25787 L -20.8236,-1.16216
 L -20.8866,-1.07997 L -20.9688,-1.01689 L -21.0645,-0.977249 L -21.1673,-0.96373 L -21.27,-0.977249 L -21.3657,-1.01689
 L -21.4479,-1.07997 L -21.511,-1.16216 L -21.5506,-1.25787 L -21.5641,-1.3606 L -21.5641,-2.9481 L -21.6047,-3.25626
 L -21.7236,-3.54341 L -21.9129,-3.78999 L -22.1595,-3.97922 L -22.4466,-4.09816 L -22.7548,-4.13872 L -23.0629,-4.09816
 L -23.3501,-3.97922 L -23.5967,-3.78999 L -23.7859,-3.54341 L -23.9048,-3.25626 L -23.9454,-2.9481 L -23.9454,-1.3606
 L -23.9589,-1.25787 L -23.9986,-1.16216 L -24.0616,-1.07997 L -24.1438,-1.01689 L -24.2395,-0.977249 L -24.3423,-0.96373
 L -27.5173,-0.96373 L -27.8788,-0.916122 L -28.2157,-0.776581 L -28.505,-0.554596 L -28.727,-0.265289 L -28.8665,0.0715942
 L -28.9141,0.433136 L -28.9141,1.45804 L -29.0686,1.48137 L -29.4485,1.57278 L -29.6032,1.62462 L -29.9553,1.77747
 L -30.1048,1.85851 L -30.4195,2.06604 L -30.5581,2.17595 L -30.8273,2.42995 L -30.9494,2.56729 L -31.1666,2.8584
 L -31.2669,3.02063 L -31.4274,3.3387 L -31.5008,3.52222 L -31.602,3.85663 L -31.644,4.05681 L -31.6852,4.39682
 L -31.6923,4.60814 L -31.6745,4.94328 L -31.644,5.15947 L -31.5703,5.4798 L -31.5008,5.69405 L -31.3755,5.99049
 L -31.2669,6.19563 L -31.0961,6.46022 L -30.9494,6.64899 L -30.7402,6.87506 L -30.5581,7.04033 L -30.3185,7.22273
 L -30.1048,7.35777 L -29.8434,7.49292 L -29.6032,7.59166 L -29.329,7.67761 L -29.0686,7.73489 L -28.7905,7.77135
 L -28.5173,7.78314 L -28.244,7.77135 L -27.9659,7.73489 L -27.7055,7.67761 L -27.4314,7.59166 L -27.1911,7.49292
 L -26.9298,7.35777 L -26.716,7.22273 L -26.4764,7.04033 L -26.2943,6.87506 L -26.0851,6.64899 L -25.9384,6.46022
 L -25.7676,6.19563 L -25.659,5.99049 L -25.5337,5.69405 L -25.4643,5.4798 L -25.3905,5.15947 L -25.36,4.94328
 L -25.3423,4.60814 L -25.3493,4.39682 L -25.3905,4.05681 L -25.4325,3.85663 L -25.5337,3.52222 L -25.6071,3.3387
 L -25.7676,3.02063 L -25.8679,2.8584 L -26.0851,2.56729 L -26.2073,2.42995 L -26.4764,2.17595 L -26.6151,2.06604
 L -26.9298,1.85851 L -27.0792,1.77747 L -27.4314,1.62462 L -27.586,1.57278 L -27.9659,1.48137 L -28.1204,1.45804
 L -28.1204,0.433136 L -28.0998,0.277039 L -28.0396,0.131577 L -27.9437,0.00666809 L -27.8188,-0.0891724 L -27.6734,-0.149429
 L -27.5173,-0.169968 L -24.3423,-0.169968 L -24.0341,-0.210541 L -23.7469,-0.329483 L -23.5004,-0.518707 L -23.3111,-0.765289
 L -23.1922,-1.05244 L -23.1516,-1.3606 L -23.1516,-2.9481 L -23.1381,-3.05081 L -23.0985,-3.14653 L -23.0354,-3.22873
 L -22.9532,-3.29181 L -22.8575,-3.33145 L -22.7548,-3.34497 L -22.652,-3.33145 L -22.5563,-3.29181 L -22.4741,-3.22873
 L -22.4111,-3.14653 L -22.3714,-3.05081 L -22.3579,-2.9481 L -22.3579,-1.3606 L -22.3173,-1.05244 L -22.1984,-0.765289
 L -22.0092,-0.518707 L -21.7626,-0.329483 L -21.4754,-0.210541 L -21.1673,-0.169968 L -20.8591,-0.210541 L -20.5719,-0.329483
 L -20.3254,-0.518707 L -20.1362,-0.765289 L -20.0172,-1.05244 L -19.9766,-1.3606 L -19.9766,-2.9481 L -19.9631,-3.05081
 L -19.9235,-3.14653 L -19.8604,-3.22873 L -19.7782,-3.29181 L -19.6825,-3.33145 L -19.5798,-3.34497 L -19.477,-3.33145
 L -19.3813,-3.29181 L -19.2991,-3.22873 L -19.2361,-3.14653 L -19.1964,-3.05081 L -19.1829,-2.9481 L -19.1829,-1.3606
 L -19.1423,-1.05244 L -19.0234,-0.765289 L -18.8342,-0.518707 L -18.5876,-0.329483 L -18.3004,-0.210541 L -17.9923,-0.169968
 L -15.611,-0.169968 L -15.611,3.005 L -11.6423,3.005 L -11.3341,2.96445 L -11.047,2.8455 L -10.8004,2.65628
 L -10.6111,2.4097 L -10.4922,2.12254 L -10.4516,1.81439 L -10.4516,0.226883 L -10.4381,0.124161 L -10.3985,0.0284424
 L -10.3354,-0.0537262 L -10.2532,-0.116806 L -10.1575,-0.156448 L -10.0548,-0.169968 L -9.95204,-0.156448 L -9.85632,-0.116806
 L -9.77412,-0.0537262 L -9.71106,0.0284424 L -9.6714,0.124161 L -9.65788,0.226883 L -9.65788,1.81439 L -9.61731,2.12254
 L -9.49837,2.4097 L -9.30916,2.65628 L -9.06258,2.8455 L -8.77542,2.96445 L -8.46725,3.005 L -8.1591,2.96445
 L -7.87195,2.8455 L -7.62537,2.65628 L -7.43614,2.4097 L -7.3172,2.12254 L -7.27664,1.81439 L -7.27664,0.226883
 L -7.26311,0.124161 L -7.22346,0.0284424 L -7.16039,-0.0537262 L -7.0782,-0.116806 L -6.98248,-0.156448 L -6.87976,-0.169968
 L -6.77704,-0.156448 L -6.68132,-0.116806 L -6.59912,-0.0537262 L -6.53606,0.0284424 L -6.49641,0.124161 L -6.48288,0.226883
 L -6.48288,1.81439 L -6.44232,2.12254 L -6.32336,2.4097 L -6.13416,2.65628 L -5.88757,2.8455 L -5.60042,2.96445
 L -5.29227,3.005 L -2.91101,3.005 L -2.91101,6.18001 L 1.05772,6.18001 L 1.36588,6.13943 L 1.65303,6.02049
 L 1.89963,5.83128 L 2.08884,5.5847 L 2.20778,5.29755 L 2.24835,4.98938 L 2.24835,3.40189 L 2.26187,3.29916
 L 2.30153,3.20345 L 2.36459,3.12125 L 2.44679,3.05818 L 2.54251,3.01854 L 2.64523,3.005 L 2.74794,3.01854
 L 2.84366,3.05818 L 2.92586,3.12125 L 2.98892,3.20345 L 3.02858,3.29916 L 3.0421,3.40189 L 3.0421,4.98938
 L 3.08267,5.29755 L 3.20161,5.5847 L 3.39082,5.83128 L 3.63742,6.02049 L 3.92458,6.13943 L 4.23273,6.18001
 L 4.54088,6.13943 L 4.82803,6.02049 L 5.07463,5.83128 L 5.26384,5.5847 L 5.38278,5.29755 L 5.42336,4.98938
 L 5.42336,3.40189 L 5.43687,3.29916 L 5.47652,3.20345 L 5.5396,3.12125 L 5.6218,3.05818 L 5.71751,3.01854
 L 5.82022,3.005 L 5.92294,3.01854 L 6.01866,3.05818 L 6.10086,3.12125 L 6.16393,3.20345 L 6.20358,3.29916
 L 6.2171,3.40189 L 6.2171,4.98938 L 6.25768,5.29755 L 6.37662,5.5847 L 6.56583,5.83128 L 6.81241,6.02049
 L 7.09956,6.13943 L 7.40773,6.18001 L 9.78897,6.18001 L 9.78897,9.35501 L 13.7577,9.35501 L 14.0659,9.31444
 L 14.353,9.1955 L 14.5996,9.00629 L 14.7888,8.7597 L 14.9078,8.47255 L 14.9483,8.16438 L 14.9483,6.57689
 L 14.9619,6.47417 L 15.0015,6.37845 L 15.0646,6.29625 L 15.1468,6.23318 L 15.2425,6.19353 L 15.3452,6.18001
 L 15.448,6.19353 L 15.5437,6.23318 L 15.6259,6.29625 L 15.6889,6.37845 L 15.7286,6.47417 L 15.7421,6.57689
 L 15.7421,8.16438 L 15.7827,8.47255 L 15.9016,8.7597 L 16.0908,9.00629 L 16.3374,9.1955 L 16.6246,9.31444
 L 16.9327,9.35501 L 17.2409,9.31444 L 17.528,9.1955 L 17.7746,9.00629 L 17.9638,8.7597 L 18.0828,8.47255
 L 18.1234,8.16438 L 18.1234,6.57689 L 18.1369,6.47417 L 18.1765,6.37845 L 18.2396,6.29625 L 18.3218,6.23318
 L 18.4175,6.19353 L 18.5202,6.18001 L 18.6229,6.19353 L 18.7187,6.23318 L 18.8009,6.29625 L 18.8639,6.37845
 L 18.9036,6.47417 L 18.9171,6.57689 L 18.9171,8.16438 L 18.9577,8.47255 L 19.0766,8.7597 L 19.2658,9.00629
 L 19.5124,9.1955 L 19.7996,9.31444 L 20.1077,9.35501 L 22.7849,9.35501 L 22.938,9.6835 L 23.1777,9.99074
 L 23.4971,10.2677 L 23.8868,10.5063 L 24.3354,10.6996 L 24.8297,10.8418 L 25.3553,10.9288 L 25.8968,10.9581
 z
M 30.064,-10.4887 L 29.0086,-10.4887 L 28.8556,-10.8172 L 28.6159,-11.1245 L 28.2965,-11.4014 L 27.9068,-11.64
 L 27.4582,-11.8333 L 26.9639,-11.9755 L 26.4382,-12.0625 L 25.8968,-12.0918 L 25.3553,-12.0625 L 24.8297,-11.9755
 L 24.3354,-11.8333 L 23.8868,-11.64 L 23.4971,-11.4014 L 23.1777,-11.1245 L 22.938,-10.8172 L 22.7849,-10.4887
 L 20.1077,-10.4887 L 20.005,-10.5022 L 19.9093,-10.5419 L 19.8271,-10.605 L 19.764,-10.6872 L 19.7244,-10.7829
 L 19.7108,-10.8856 L 19.7108,-12.4731 L 19.6703,-12.7812 L 19.5513,-13.0684 L 19.3621,-13.315 L 19.1155,-13.5042
 L 18.8284,-13.6232 L 18.5202,-13.6637 L 18.2121,-13.6232 L 17.9249,-13.5042 L 17.6783,-13.315 L 17.4891,-13.0684
 L 17.3702,-12.7812 L 17.3296,-12.4731 L 17.3296,-10.8856 L 17.3161,-10.7829 L 17.2764,-10.6872 L 17.2134,-10.605
 L 17.1312,-10.5419 L 17.0354,-10.5022 L 16.9327,-10.4887 L 16.83,-10.5022 L 16.7343,-10.5419 L 16.6521,-10.605
 L 16.589,-10.6872 L 16.5494,-10.7829 L 16.5359,-10.8856 L 16.5359,-12.4731 L 16.4953,-12.7812 L 16.3763,-13.0684
 L 16.1871,-13.315 L 15.9405,-13.5042 L 15.6534,-13.6232 L 15.3452,-13.6637 L 15.0371,-13.6232 L 14.7499,-13.5042
 L 14.5033,-13.315 L 14.3141,-13.0684 L 14.1952,-12.7812 L 14.1546,-12.4731 L 14.1546,-10.8856 L 14.1411,-10.7829
 L 14.1014,-10.6872 L 14.0384,-10.605 L 13.9562,-10.5419 L 13.8604,-10.5022 L 13.7577,-10.4887 L 11.3765,-10.4887
 L 11.3765,-16.045 L 13.7577,-16.045 L 14.0659,-16.0855 L 14.353,-16.2045 L 14.5996,-16.3937 L 14.7888,-16.6403
 L 14.9078,-16.9274 L 14.9483,-17.2356 L 14.9483,-18.8231 L 14.9619,-18.9258 L 15.0015,-19.0215 L 15.0646,-19.1037
 L 15.1468,-19.1668 L 15.2425,-19.2065 L 15.3452,-19.22 L 15.448,-19.2065 L 15.5437,-19.1668 L 15.6259,-19.1037
 L 15.6889,-19.0215 L 15.7286,-18.9258 L 15.7421,-18.8231 L 15.7421,-17.2356 L 15.7827,-16.9274 L 15.9016,-16.6403
 L 16.0908,-16.3937 L 16.3374,-16.2045 L 16.6246,-16.0855 L 16.9327,-16.045 L 17.2409,-16.0855 L 17.528,-16.2045
 L 17.7746,-16.3937 L 17.9638,-16.6403 L 18.0828,-16.9274 L 18.1234,-17.2356 L 18.1234,-18.8231 L 18.1369,-18.9258
 L 18.1765,-19.0215 L 18.2396,-19.1037 L 18.3218,-19.1668 L 18.4175,-19.2065 L 18.5202,-19.22 L 18.6229,-19.2065
 L 18.7187,-19.1668 L 18.8009,-19.1037 L 18.8639,-19.0215 L 18.9036,-18.9258 L 18.9171,-18.8231 L 18.9171,-17.2356
 L 18.9577,-16.9274 L 19.0766,-16.6403 L 19.2658,-16.3937 L 19.5124,-16.2045 L 19.7996,-16.0855 L 20.1077,-16.045
 L 22.7849,-16.045 L 22.938,-15.7165 L 23.1777,-15.4093 L 23.4971,-15.1323 L 23.8868,-14.8937 L 24.3354,-14.7004
 L 24.8297,-14.5582 L 25.3553,-14.4711 L 25.8968,-14.4418 L 26.4382,-14.4711 L 26.9639,-14.5582 L 27.4582,-14.7004
 L 27.9068,-14.8937 L 28.2965,-15.1323 L 28.6159,-15.4093 L 28.8556,-15.7165 L 29.0086,-16.045 L 29.5905,-16.045
 L 33.2842,-6.19507 z
M -1.32352,-7.31372 L -1.32352,-12.87 L 1.05772,-12.87 L 1.36588,-12.9105 L 1.65303,-13.0295 L 1.89963,-13.2187
 L 2.08884,-13.4653 L 2.20778,-13.7524 L 2.24835,-14.0606 L 2.24835,-15.6481 L 2.26187,-15.7508 L 2.30153,-15.8465
 L 2.36459,-15.9287 L 2.44679,-15.9918 L 2.54251,-16.0314 L 2.64523,-16.045 L 2.74794,-16.0314 L 2.84366,-15.9918
 L 2.92586,-15.9287 L 2.98892,-15.8465 L 3.02858,-15.7508 L 3.0421,-15.6481 L 3.0421,-14.0606 L 3.08267,-13.7524
 L 3.20161,-13.4653 L 3.39082,-13.2187 L 3.63742,-13.0295 L 3.92458,-12.9105 L 4.23273,-12.87 L 4.54088,-12.9105
 L 4.82803,-13.0295 L 5.07463,-13.2187 L 5.26384,-13.4653 L 5.38278,-13.7524 L 5.42336,-14.0606 L 5.42336,-15.6481
 L 5.43687,-15.7508 L 5.47652,-15.8465 L 5.5396,-15.9287 L 5.6218,-15.9918 L 5.71751,-16.0314 L 5.82022,-16.045
 L 5.92294,-16.0314 L 6.01866,-15.9918 L 6.10086,-15.9287 L 6.16393,-15.8465 L 6.20358,-15.7508 L 6.2171,-15.6481
 L 6.2171,-14.0606 L 6.25768,-13.7524 L 6.37662,-13.4653 L 6.56583,-13.2187 L 6.81241,-13.0295 L 7.09956,-12.9105
 L 7.40773,-12.87 L 9.78897,-12.87 L 9.78897,-7.31372 L 7.40773,-7.31372 L 7.30501,-7.32724 L 7.20929,-7.3669
 L 7.12709,-7.42996 L 7.06403,-7.51216 L 7.02437,-7.60788 L 7.01085,-7.7106 L 7.01085,-9.2981 L 6.97028,-9.60626
 L 6.85133,-9.89342 L 6.66212,-10.14 L 6.41554,-10.3292 L 6.12839,-10.4482 L 5.82022,-10.4887 L 5.51207,-10.4482
 L 5.22491,-10.3292 L 4.97833,-10.14 L 4.78911,-9.89342 L 4.67017,-9.60626 L 4.62961,-9.2981 L 4.62961,-7.7106
 L 4.61607,-7.60788 L 4.57643,-7.51216 L 4.51335,-7.42996 L 4.43117,-7.3669 L 4.33545,-7.32724 L 4.23273,-7.31372
 L 4.13,-7.32724 L 4.03429,-7.3669 L 3.95209,-7.42996 L 3.88902,-7.51216 L 3.84938,-7.60788 L 3.83585,-7.7106
 L 3.83585,-9.2981 L 3.79529,-9.60626 L 3.67633,-9.89342 L 3.48712,-10.14 L 3.24054,-10.3292 L 2.95338,-10.4482
 L 2.64523,-10.4887 L 2.33707,-10.4482 L 2.04991,-10.3292 L 1.80333,-10.14 L 1.61412,-9.89342 L 1.49516,-9.60626
 L 1.45461,-9.2981 L 1.45461,-7.7106 L 1.44107,-7.60788 L 1.40143,-7.51216 L 1.33836,-7.42996 L 1.25616,-7.3669
 L 1.16045,-7.32724 L 1.05772,-7.31372 z
M 11.3765,-4.13872 L 11.3765,-9.69498 L 13.7577,-9.69498 L 14.0659,-9.73555 L 14.353,-9.85449 L 14.5996,-10.0437
 L 14.7888,-10.2903 L 14.9078,-10.5774 L 14.9483,-10.8856 L 14.9483,-12.4731 L 14.9619,-12.5758 L 15.0015,-12.6715
 L 15.0646,-12.7537 L 15.1468,-12.8168 L 15.2425,-12.8564 L 15.3452,-12.87 L 15.448,-12.8564 L 15.5437,-12.8168
 L 15.6259,-12.7537 L 15.6889,-12.6715 L 15.7286,-12.5758 L 15.7421,-12.4731 L 15.7421,-10.8856 L 15.7827,-10.5774
 L 15.9016,-10.2903 L 16.0908,-10.0437 L 16.3374,-9.85449 L 16.6246,-9.73555 L 16.9327,-9.69498 L 17.2409,-9.73555
 L 17.528,-9.85449 L 17.7746,-10.0437 L 17.9638,-10.2903 L 18.0828,-10.5774 L 18.1234,-10.8856 L 18.1234,-12.4731
 L 18.1369,-12.5758 L 18.1765,-12.6715 L 18.2396,-12.7537 L 18.3218,-12.8168 L 18.4175,-12.8564 L 18.5202,-12.87
 L 18.6229,-12.8564 L 18.7187,-12.8168 L 18.8009,-12.7537 L 18.8639,-12.6715 L 18.9036,-12.5758 L 18.9171,-12.4731
 L 18.9171,-10.8856 L 18.9577,-10.5774 L 19.0766,-10.2903 L 19.2658,-10.0437 L 19.5124,-9.85449 L 19.7996,-9.73555
 L 20.1077,-9.69498 L 22.7849,-9.69498 L 22.938,-9.36649 L 23.1777,-9.05925 L 23.4971,-8.78227 L 23.8868,-8.54367
 L 24.3354,-8.35042 L 24.8297,-8.20819 L 25.3553,-8.12115 L 25.8968,-8.09184 L 26.4382,-8.12115 L 26.9639,-8.20819
 L 27.4582,-8.35042 L 27.9068,-8.54367 L 28.2965,-8.78227 L 28.6159,-9.05925 L 28.8556,-9.36649 L 29.0086,-9.69498
 L 29.6671,-9.69498 L 33.8343,-4.13872 L 29.0086,-4.13872 L 28.8556,-4.46721 L 28.6159,-4.77444 L 28.2965,-5.05142
 L 27.9068,-5.29004 L 27.4582,-5.48329 L 26.9639,-5.62552 L 26.4382,-5.71255 L 25.8968,-5.74185 L 25.3553,-5.71255
 L 24.8297,-5.62552 L 24.3354,-5.48329 L 23.8868,-5.29004 L 23.4971,-5.05142 L 23.1777,-4.77444 L 22.938,-4.46721
 L 22.7849,-4.13872 L 20.1077,-4.13872 L 20.005,-4.15225 L 19.9093,-4.19189 L 19.8271,-4.25496 L 19.764,-4.33716
 L 19.7244,-4.43288 L 19.7108,-4.5356 L 19.7108,-6.12309 L 19.6703,-6.43126 L 19.5513,-6.71841 L 19.3621,-6.965
 L 19.1155,-7.15421 L 18.8284,-7.27315 L 18.5202,-7.31372 L 18.2121,-7.27315 L 17.9249,-7.15421 L 17.6783,-6.965
 L 17.4891,-6.71841 L 17.3702,-6.43126 L 17.3296,-6.12309 L 17.3296,-4.5356 L 17.3161,-4.43288 L 17.2764,-4.33716
 L 17.2134,-4.25496 L 17.1312,-4.19189 L 17.0354,-4.15225 L 16.9327,-4.13872 L 16.83,-4.15225 L 16.7343,-4.19189
 L 16.6521,-4.25496 L 16.589,-4.33716 L 16.5494,-4.43288 L 16.5359,-4.5356 L 16.5359,-6.12309 L 16.4953,-6.43126
 L 16.3763,-6.71841 L 16.1871,-6.965 L 15.9405,-7.15421 L 15.6534,-7.27315 L 15.3452,-7.31372 L 15.0371,-7.27315
 L 14.7499,-7.15421 L 14.5033,-6.965 L 14.3141,-6.71841 L 14.1952,-6.43126 L 14.1546,-6.12309 L 14.1546,-4.5356
 L 14.1411,-4.43288 L 14.1014,-4.33716 L 14.0384,-4.25496 L 13.9562,-4.19189 L 13.8604,-4.15225 L 13.7577,-4.13872
 z
M -14.0235,-4.13872 L -14.0235,-9.69498 L -11.6423,-9.69498 L -11.3341,-9.73555 L -11.047,-9.85449 L -10.8004,-10.0437
 L -10.6111,-10.2903 L -10.4922,-10.5774 L -10.4516,-10.8856 L -10.4516,-12.4731 L -10.4381,-12.5758 L -10.3985,-12.6715
 L -10.3354,-12.7537 L -10.2532,-12.8168 L -10.1575,-12.8564 L -10.0548,-12.87 L -9.95204,-12.8564 L -9.85632,-12.8168
 L -9.77412,-12.7537 L -9.71106,-12.6715 L -9.6714,-12.5758 L -9.65788,-12.4731 L -9.65788,-10.8856 L -9.61731,-10.5774
 L -9.49837,-10.2903 L -9.30916,-10.0437 L -9.06258,-9.85449 L -8.77542,-9.73555 L -8.46725,-9.69498 L -8.1591,-9.73555
 L -7.87195,-9.85449 L -7.62537,-10.0437 L -7.43614,-10.2903 L -7.3172,-10.5774 L -7.27664,-10.8856 L -7.27664,-12.4731
 L -7.26311,-12.5758 L -7.22346,-12.6715 L -7.16039,-12.7537 L -7.0782,-12.8168 L -6.98248,-12.8564 L -6.87976,-12.87
 L -6.77704,-12.8564 L -6.68132,-12.8168 L -6.59912,-12.7537 L -6.53606,-12.6715 L -6.49641,-12.5758 L -6.48288,-12.4731
 L -6.48288,-10.8856 L -6.44232,-10.5774 L -6.32336,-10.2903 L -6.13416,-10.0437 L -5.88757,-9.85449 L -5.60042,-9.73555
 L -5.29227,-9.69498 L -2.91101,-9.69498 L -2.91101,-4.13872 L -5.29227,-4.13872 L -5.39497,-4.15225 L -5.49069,-4.19189
 L -5.57289,-4.25496 L -5.63596,-4.33716 L -5.67561,-4.43288 L -5.68913,-4.5356 L -5.68913,-6.12309 L -5.72971,-6.43126
 L -5.84865,-6.71841 L -6.03786,-6.965 L -6.28445,-7.15421 L -6.57161,-7.27315 L -6.87976,-7.31372 L -7.18791,-7.27315
 L -7.47507,-7.15421 L -7.72166,-6.965 L -7.91087,-6.71841 L -8.02982,-6.43126 L -8.07039,-6.12309 L -8.07039,-4.5356
 L -8.08391,-4.43288 L -8.12355,-4.33716 L -8.18663,-4.25496 L -8.26883,-4.19189 L -8.36455,-4.15225 L -8.46725,-4.13872
 L -8.56998,-4.15225 L -8.6657,-4.19189 L -8.74789,-4.25496 L -8.81096,-4.33716 L -8.85062,-4.43288 L -8.86414,-4.5356
 L -8.86414,-6.12309 L -8.90471,-6.43126 L -9.02365,-6.71841 L -9.21286,-6.965 L -9.45944,-7.15421 L -9.7466,-7.27315
 L -10.0548,-7.31372 L -10.3629,-7.27315 L -10.6501,-7.15421 L -10.8967,-6.965 L -11.0859,-6.71841 L -11.2048,-6.43126
 L -11.2454,-6.12309 L -11.2454,-4.5356 L -11.2589,-4.43288 L -11.2986,-4.33716 L -11.3616,-4.25496 L -11.4438,-4.19189
 L -11.5395,-4.15225 L -11.6423,-4.13872 z
M -1.32352,-0.96373 L -1.32352,-6.51997 L 1.05772,-6.51997 L 1.36588,-6.56055 L 1.65303,-6.67949 L 1.89963,-6.8687
 L 2.08884,-7.11528 L 2.20778,-7.40245 L 2.24835,-7.7106 L 2.24835,-9.2981 L 2.26187,-9.40082 L 2.30153,-9.49654
 L 2.36459,-9.57874 L 2.44679,-9.6418 L 2.54251,-9.68146 L 2.64523,-9.69498 L 2.74794,-9.68146 L 2.84366,-9.6418
 L 2.92586,-9.57874 L 2.98892,-9.49654 L 3.02858,-9.40082 L 3.0421,-9.2981 L 3.0421,-7.7106 L 3.08267,-7.40245
 L 3.20161,-7.11528 L 3.39082,-6.8687 L 3.63742,-6.67949 L 3.92458,-6.56055 L 4.23273,-6.51997 L 4.54088,-6.56055
 L 4.82803,-6.67949 L 5.07463,-6.8687 L 5.26384,-7.11528 L 5.38278,-7.40245 L 5.42336,-7.7106 L 5.42336,-9.2981
 L 5.43687,-9.40082 L 5.47652,-9.49654 L 5.5396,-9.57874 L 5.6218,-9.6418 L 5.71751,-9.68146 L 5.82022,-9.69498
 L 5.92294,-9.68146 L 6.01866,-9.6418 L 6.10086,-9.57874 L 6.16393,-9.49654 L 6.20358,-9.40082 L 6.2171,-9.2981
 L 6.2171,-7.7106 L 6.25768,-7.40245 L 6.37662,-7.11528 L 6.56583,-6.8687 L 6.81241,-6.67949 L 7.09956,-6.56055
 L 7.40773,-6.51997 L 9.78897,-6.51997 L 9.78897,-0.96373 L 7.40773,-0.96373 L 7.30501,-0.977249 L 7.20929,-1.01689
 L 7.12709,-1.07997 L 7.06403,-1.16216 L 7.02437,-1.25787 L 7.01085,-1.3606 L 7.01085,-2.9481 L 6.97028,-3.25626
 L 6.85133,-3.54341 L 6.66212,-3.78999 L 6.41554,-3.97922 L 6.12839,-4.09816 L 5.82022,-4.13872 L 5.51207,-4.09816
 L 5.22491,-3.97922 L 4.97833,-3.78999 L 4.78911,-3.54341 L 4.67017,-3.25626 L 4.62961,-2.9481 L 4.62961,-1.3606
 L 4.61607,-1.25787 L 4.57643,-1.16216 L 4.51335,-1.07997 L 4.43117,-1.01689 L 4.33545,-0.977249 L 4.23273,-0.96373
 L 4.13,-0.977249 L 4.03429,-1.01689 L 3.95209,-1.07997 L 3.88902,-1.16216 L 3.84938,-1.25787 L 3.83585,-1.3606
 L 3.83585,-2.9481 L 3.79529,-3.25626 L 3.67633,-3.54341 L 3.48712,-3.78999 L 3.24054,-3.97922 L 2.95338,-4.09816
 L 2.64523,-4.13872 L 2.33707,-4.09816 L 2.04991,-3.97922 L 1.80333,-3.78999 L 1.61412,-3.54341 L 1.49516,-3.25626
 L 1.45461,-2.9481 L 1.45461,-1.3606 L 1.44107,-1.25787 L 1.40143,-1.16216 L 1.33836,-1.07997 L 1.25616,-1.01689
 L 1.16045,-0.977249 L 1.05772,-0.96373 z
M -14.0235,2.21126 L -14.0235,-3.34497 L -11.6423,-3.34497 L -11.3341,-3.38554 L -11.047,-3.50449 L -10.8004,-3.6937
 L -10.6111,-3.94029 L -10.4922,-4.22745 L -10.4516,-4.5356 L -10.4516,-6.12309 L -10.4381,-6.22581 L -10.3985,-6.32153
 L -10.3354,-6.40373 L -10.2532,-6.4668 L -10.1575,-6.50645 L -10.0548,-6.51997 L -9.95204,-6.50645 L -9.85632,-6.4668
 L -9.77412,-6.40373 L -9.71106,-6.32153 L -9.6714,-6.22581 L -9.65788,-6.12309 L -9.65788,-4.5356 L -9.61731,-4.22745
 L -9.49837,-3.94029 L -9.30916,-3.6937 L -9.06258,-3.50449 L -8.77542,-3.38554 L -8.46725,-3.34497 L -8.1591,-3.38554
 L -7.87195,-3.50449 L -7.62537,-3.6937 L -7.43614,-3.94029 L -7.3172,-4.22745 L -7.27664,-4.5356 L -7.27664,-6.12309
 L -7.26311,-6.22581 L -7.22346,-6.32153 L -7.16039,-6.40373 L -7.0782,-6.4668 L -6.98248,-6.50645 L -6.87976,-6.51997
 L -6.77704,-6.50645 L -6.68132,-6.4668 L -6.59912,-6.40373 L -6.53606,-6.32153 L -6.49641,-6.22581 L -6.48288,-6.12309
 L -6.48288,-4.5356 L -6.44232,-4.22745 L -6.32336,-3.94029 L -6.13416,-3.6937 L -5.88757,-3.50449 L -5.60042,-3.38554
 L -5.29227,-3.34497 L -2.91101,-3.34497 L -2.91101,2.21126 L -5.29227,2.21126 L -5.39497,2.19774 L -5.49069,2.1581
 L -5.57289,2.09502 L -5.63596,2.01282 L -5.67561,1.9171 L -5.68913,1.81439 L -5.68913,0.226883 L -5.72971,-0.0812531
 L -5.84865,-0.368408 L -6.03786,-0.615005 L -6.28445,-0.804214 L -6.57161,-0.923157 L -6.87976,-0.96373 L -7.18791,-0.923157
 L -7.47507,-0.804214 L -7.72166,-0.615005 L -7.91087,-0.368408 L -8.02982,-0.0812531 L -8.07039,0.226883 L -8.07039,1.81439
 L -8.08391,1.9171 L -8.12355,2.01282 L -8.18663,2.09502 L -8.26883,2.1581 L -8.36455,2.19774 L -8.46725,2.21126
 L -8.56998,2.19774 L -8.6657,2.1581 L -8.74789,2.09502 L -8.81096,2.01282 L -8.85062,1.9171 L -8.86414,1.81439
 L -8.86414,0.226883 L -8.90471,-0.0812531 L -9.02365,-0.368408 L -9.21286,-0.615005 L -9.45944,-0.804214 L -9.7466,-0.923157
 L -10.0548,-0.96373 L -10.3629,-0.923157 L -10.6501,-0.804214 L -10.8967,-0.615005 L -11.0859,-0.368408 L -11.2048,-0.0812531
 L -11.2454,0.226883 L -11.2454,1.81439 L -11.2589,1.9171 L -11.2986,2.01282 L -11.3616,2.09502 L -11.4438,2.1581
 L -11.5395,2.19774 L -11.6423,2.21126 z
M 11.3765,2.21126 L 11.3765,-3.34497 L 13.7577,-3.34497 L 14.0659,-3.38554 L 14.353,-3.50449 L 14.5996,-3.6937
 L 14.7888,-3.94029 L 14.9078,-4.22745 L 14.9483,-4.5356 L 14.9483,-6.12309 L 14.9619,-6.22581 L 15.0015,-6.32153
 L 15.0646,-6.40373 L 15.1468,-6.4668 L 15.2425,-6.50645 L 15.3452,-6.51997 L 15.448,-6.50645 L 15.5437,-6.4668
 L 15.6259,-6.40373 L 15.6889,-6.32153 L 15.7286,-6.22581 L 15.7421,-6.12309 L 15.7421,-4.5356 L 15.7827,-4.22745
 L 15.9016,-3.94029 L 16.0908,-3.6937 L 16.3374,-3.50449 L 16.6246,-3.38554 L 16.9327,-3.34497 L 17.2409,-3.38554
 L 17.528,-3.50449 L 17.7746,-3.6937 L 17.9638,-3.94029 L 18.0828,-4.22745 L 18.1234,-4.5356 L 18.1234,-6.12309
 L 18.1369,-6.22581 L 18.1765,-6.32153 L 18.2396,-6.40373 L 18.3218,-6.4668 L 18.4175,-6.50645 L 18.5202,-6.51997
 L 18.6229,-6.50645 L 18.7187,-6.4668 L 18.8009,-6.40373 L 18.8639,-6.32153 L 18.9036,-6.22581 L 18.9171,-6.12309
 L 18.9171,-4.5356 L 18.9577,-4.22745 L 19.0766,-3.94029 L 19.2658,-3.6937 L 19.5124,-3.50449 L 19.7996,-3.38554
 L 20.1077,-3.34497 L 22.7849,-3.34497 L 22.938,-3.01649 L 23.1777,-2.70926 L 23.4971,-2.43228 L 23.8868,-2.19366
 L 24.3354,-2.00041 L 24.8297,-1.85818 L 25.3553,-1.77115 L 25.8968,-1.74185 L 26.4382,-1.77115 L 26.9639,-1.85818
 L 27.4582,-2.00041 L 27.9068,-2.19366 L 28.2965,-2.43228 L 28.6159,-2.70926 L 28.8556,-3.01649 L 29.0086,-3.34497
 L 33.8343,-3.34497 L 29.6671,2.21126 L 29.0086,2.21126 L 28.8556,1.88278 L 28.6159,1.57555 L 28.2965,1.29857
 L 27.9068,1.05995 L 27.4582,0.866699 L 26.9639,0.724472 L 26.4382,0.637436 L 25.8968,0.608139 L 25.3553,0.637436
 L 24.8297,0.724472 L 24.3354,0.866699 L 23.8868,1.05995 L 23.4971,1.29857 L 23.1777,1.57555 L 22.938,1.88278
 L 22.7849,2.21126 L 20.1077,2.21126 L 20.005,2.19774 L 19.9093,2.1581 L 19.8271,2.09502 L 19.764,2.01282
 L 19.7244,1.9171 L 19.7108,1.81439 L 19.7108,0.226883 L 19.6703,-0.0812531 L 19.5513,-0.368408 L 19.3621,-0.615005
 L 19.1155,-0.804214 L 18.8284,-0.923157 L 18.5202,-0.96373 L 18.2121,-0.923157 L 17.9249,-0.804214 L 17.6783,-0.615005
 L 17.4891,-0.368408 L 17.3702,-0.0812531 L 17.3296,0.226883 L 17.3296,1.81439 L 17.3161,1.9171 L 17.2764,2.01282
 L 17.2134,2.09502 L 17.1312,2.1581 L 17.0354,2.19774 L 16.9327,2.21126 L 16.83,2.19774 L 16.7343,2.1581
 L 16.6521,2.09502 L 16.589,2.01282 L 16.5494,1.9171 L 16.5359,1.81439 L 16.5359,0.226883 L 16.4953,-0.0812531
 L 16.3763,-0.368408 L 16.1871,-0.615005 L 15.9405,-0.804214 L 15.6534,-0.923157 L 15.3452,-0.96373 L 15.0371,-0.923157
 L 14.7499,-0.804214 L 14.5033,-0.615005 L 14.3141,-0.368408 L 14.1952,-0.0812531 L 14.1546,0.226883 L 14.1546,1.81439
 L 14.1411,1.9171 L 14.1014,2.01282 L 14.0384,2.09502 L 13.9562,2.1581 L 13.8604,2.19774 L 13.7577,2.21126
 z
M -1.32352,5.38626 L -1.32352,-0.169968 L 1.05772,-0.169968 L 1.36588,-0.210541 L 1.65303,-0.329483 L 1.89963,-0.518707
 L 2.08884,-0.765289 L 2.20778,-1.05244 L 2.24835,-1.3606 L 2.24835,-2.9481 L 2.26187,-3.05081 L 2.30153,-3.14653
 L 2.36459,-3.22873 L 2.44679,-3.29181 L 2.54251,-3.33145 L 2.64523,-3.34497 L 2.74794,-3.33145 L 2.84366,-3.29181
 L 2.92586,-3.22873 L 2.98892,-3.14653 L 3.02858,-3.05081 L 3.0421,-2.9481 L 3.0421,-1.3606 L 3.08267,-1.05244
 L 3.20161,-0.765289 L 3.39082,-0.518707 L 3.63742,-0.329483 L 3.92458,-0.210541 L 4.23273,-0.169968 L 4.54088,-0.210541
 L 4.82803,-0.329483 L 5.07463,-0.518707 L 5.26384,-0.765289 L 5.38278,-1.05244 L 5.42336,-1.3606 L 5.42336,-2.9481
 L 5.43687,-3.05081 L 5.47652,-3.14653 L 5.5396,-3.22873 L 5.6218,-3.29181 L 5.71751,-3.33145 L 5.82022,-3.34497
 L 5.92294,-3.33145 L 6.01866,-3.29181 L 6.10086,-3.22873 L 6.16393,-3.14653 L 6.20358,-3.05081 L 6.2171,-2.9481
 L 6.2171,-1.3606 L 6.25768,-1.05244 L 6.37662,-0.765289 L 6.56583,-0.518707 L 6.81241,-0.329483 L 7.09956,-0.210541
 L 7.40773,-0.169968 L 9.78897,-0.169968 L 9.78897,5.38626 L 7.40773,5.38626 L 7.30501,5.37274 L 7.20929,5.33308
 L 7.12709,5.27002 L 7.06403,5.18782 L 7.02437,5.0921 L 7.01085,4.98938 L 7.01085,3.40189 L 6.97028,3.09373
 L 6.85133,2.80658 L 6.66212,2.55998 L 6.41554,2.37077 L 6.12839,2.25183 L 5.82022,2.21126 L 5.51207,2.25183
 L 5.22491,2.37077 L 4.97833,2.55998 L 4.78911,2.80658 L 4.67017,3.09373 L 4.62961,3.40189 L 4.62961,4.98938
 L 4.61607,5.0921 L 4.57643,5.18782 L 4.51335,5.27002 L 4.43117,5.33308 L 4.33545,5.37274 L 4.23273,5.38626
 L 4.13,5.37274 L 4.03429,5.33308 L 3.95209,5.27002 L 3.88902,5.18782 L 3.84938,5.0921 L 3.83585,4.98938
 L 3.83585,3.40189 L 3.79529,3.09373 L 3.67633,2.80658 L 3.48712,2.55998 L 3.24054,2.37077 L 2.95338,2.25183
 L 2.64523,2.21126 L 2.33707,2.25183 L 2.04991,2.37077 L 1.80333,2.55998 L 1.61412,2.80658 L 1.49516,3.09373
 L 1.45461,3.40189 L 1.45461,4.98938 L 1.44107,5.0921 L 1.40143,5.18782 L 1.33836,5.27002 L 1.25616,5.33308
 L 1.16045,5.37274 L 1.05772,5.38626 z
M 11.3765,8.56126 L 11.3765,3.005 L 13.7577,3.005 L 14.0659,2.96445 L 14.353,2.8455 L 14.5996,2.65628
 L 14.7888,2.4097 L 14.9078,2.12254 L 14.9483,1.81439 L 14.9483,0.226883 L 14.9619,0.124161 L 15.0015,0.0284424
 L 15.0646,-0.0537262 L 15.1468,-0.116806 L 15.2425,-0.156448 L 15.3452,-0.169968 L 15.448,-0.156448 L 15.5437,-0.116806
 L 15.6259,-0.0537262 L 15.6889,0.0284424 L 15.7286,0.124161 L 15.7421,0.226883 L 15.7421,1.81439 L 15.7827,2.12254
 L 15.9016,2.4097 L 16.0908,2.65628 L 16.3374,2.8455 L 16.6246,2.96445 L 16.9327,3.005 L 17.2409,2.96445
 L 17.528,2.8455 L 17.7746,2.65628 L 17.9638,2.4097 L 18.0828,2.12254 L 18.1234,1.81439 L 18.1234,0.226883
 L 18.1369,0.124161 L 18.1765,0.0284424 L 18.2396,-0.0537262 L 18.3218,-0.116806 L 18.4175,-0.156448 L 18.5202,-0.169968
 L 18.6229,-0.156448 L 18.7187,-0.116806 L 18.8009,-0.0537262 L 18.8639,0.0284424 L 18.9036,0.124161 L 18.9171,0.226883
 L 18.9171,1.81439 L 18.9577,2.12254 L 19.0766,2.4097 L 19.2658,2.65628 L 19.5124,2.8455 L 19.7996,2.96445
 L 20.1077,3.005 L 22.7849,3.005 L 22.938,3.3335 L 23.1777,3.64073 L 23.4971,3.91771 L 23.8868,4.15633
 L 24.3354,4.34956 L 24.8297,4.49179 L 25.3553,4.57884 L 25.8968,4.60814 L 26.4382,4.57884 L 26.9639,4.49179
 L 27.4582,4.34956 L 27.9068,4.15633 L 28.2965,3.91771 L 28.6159,3.64073 L 28.8556,3.3335 L 29.0086,3.005
 L 30.064,3.005 L 33.2842,-1.28864 L 29.5905,8.56126 L 29.0086,8.56126 L 28.8556,8.23277 L 28.6159,7.92554
 L 28.2965,7.64856 L 27.9068,7.40996 L 27.4582,7.21671 L 26.9639,7.07448 L 26.4382,6.98744 L 25.8968,6.95813
 L 25.3553,6.98744 L 24.8297,7.07448 L 24.3354,7.21671 L 23.8868,7.40996 L 23.4971,7.64856 L 23.1777,7.92554
 L 22.938,8.23277 L 22.7849,8.56126 L 20.1077,8.56126 L 20.005,8.54774 L 19.9093,8.50809 L 19.8271,8.44502
 L 19.764,8.36282 L 19.7244,8.26711 L 19.7108,8.16438 L 19.7108,6.57689 L 19.6703,6.26872 L 19.5513,5.98157
 L 19.3621,5.73499 L 19.1155,5.54578 L 18.8284,5.42683 L 18.5202,5.38626 L 18.2121,5.42683 L 17.9249,5.54578
 L 17.6783,5.73499 L 17.4891,5.98157 L 17.3702,6.26872 L 17.3296,6.57689 L 17.3296,8.16438 L 17.3161,8.26711
 L 17.2764,8.36282 L 17.2134,8.44502 L 17.1312,8.50809 L 17.0354,8.54774 L 16.9327,8.56126 L 16.83,8.54774
 L 16.7343,8.50809 L 16.6521,8.44502 L 16.589,8.36282 L 16.5494,8.26711 L 16.5359,8.16438 L 16.5359,6.57689
 L 16.4953,6.26872 L 16.3763,5.98157 L 16.1871,5.73499 L 15.9405,5.54578 L 15.6534,5.42683 L 15.3452,5.38626
 L 15.0371,5.42683 L 14.7499,5.54578 L 14.5033,5.73499 L 14.3141,5.98157 L 14.1952,6.26872 L 14.1546,6.57689
 L 14.1546,8.16438 L 14.1411,8.26711 L 14.1014,8.36282 L 14.0384,8.44502 L 13.9562,8.50809 L 13.8604,8.54774
 L 13.7577,8.56126 z
" stroke="black" fill="lightgray" stroke-width="0.5"/>
</svg>
