<?xml version="1.0" encoding="UTF-8" standalone="no"?>
<svg
   xmlns:dc="http://purl.org/dc/elements/1.1/"
   xmlns:cc="http://creativecommons.org/ns#"
   xmlns:rdf="http://www.w3.org/1999/02/22-rdf-syntax-ns#"
   xmlns:svg="http://www.w3.org/2000/svg"
   xmlns="http://www.w3.org/2000/svg"
   xmlns:sodipodi="http://sodipodi.sourceforge.net/DTD/sodipodi-0.dtd"
   xmlns:inkscape="http://www.inkscape.org/namespaces/inkscape"
   width="135mm"
   height="85mm"
   viewBox="0 0 135000 85000"
   version="1.1"
   id="svg1826"
   sodipodi:docname="Device_layer_3.svg.2020_11_02_17_59_42.0.svg"
   inkscape:version="1.0.1 (0767f8302a, 2020-10-17)">
  <metadata
     id="metadata1832">
    <rdf:RDF>
      <cc:Work
         rdf:about="">
        <dc:format>image/svg+xml</dc:format>
        <dc:type
           rdf:resource="http://purl.org/dc/dcmitype/StillImage" />
      </cc:Work>
    </rdf:RDF>
  </metadata>
  <defs
     id="defs1830">
    <inkscape:path-effect
       effect="rough_hatches"
       id="path-effect3042"
       is_visible="true"
       lpeversion="1"
       direction="63712.801,38991.516 , 11352.222,0"
       dist_rdm="1;4021298827"
       growth="0"
       do_bend="false"
       bender="63712.801,38996.516 , 5,0"
       bottom_edge_variation="0;4215250370"
       top_edge_variation="4540.8887;1"
       bottom_tgt_variation="0;1"
       top_tgt_variation="0;1"
       scale_bf="1"
       scale_bb="1"
       scale_tf="1"
       scale_tb="1"
       top_smth_variation="0;1"
       bottom_smth_variation="0;1"
       fat_output="false"
       stroke_width_top="0.8"
       stroke_width_bottom="1"
       front_thickness="1"
       back_thickness="25" />
    <inkscape:path-effect
       effect="rough_hatches"
       id="path-effect3036"
       is_visible="true"
       lpeversion="1"
       direction="60005.831,28732.399 , 5072.4409,0"
       dist_rdm="0;68466365"
       growth="0"
       do_bend="false"
       bender="60005.831,28737.399 , 5,0"
       bottom_edge_variation="0;2542532609"
       top_edge_variation="0;1"
       bottom_tgt_variation="0;2496563949"
       top_tgt_variation="0;1"
       scale_bf="1"
       scale_bb="2"
       scale_tf="2"
       scale_tb="0"
       top_smth_variation="0;1"
       bottom_smth_variation="0;1"
       fat_output="true"
       stroke_width_top="1"
       stroke_width_bottom="1"
       front_thickness="1"
       back_thickness="25" />
    <inkscape:path-effect
       effect="rough_hatches"
       id="path-effect3022"
       is_visible="true"
       lpeversion="1"
       direction="79111.906,21681.826 , 3246.2744,0"
       dist_rdm="0;1530587897"
       growth="0"
       do_bend="true"
       bender="79111.906,21686.826 , 5,0"
       bottom_edge_variation="0;177852053"
       top_edge_variation="0;2349438325"
       bottom_tgt_variation="0;999873504"
       top_tgt_variation="0;1"
       scale_bf="0"
       scale_bb="1"
       scale_tf="1"
       scale_tb="1"
       top_smth_variation="0;2980841239"
       bottom_smth_variation="0;2948198364"
       fat_output="false"
       stroke_width_top="50"
       stroke_width_bottom="1.9"
       front_thickness="4.4"
       back_thickness="25" />
    <inkscape:path-effect
       effect="rough_hatches"
       id="path-effect3020"
       is_visible="true"
       lpeversion="1"
       direction="61751.479,25605.604 , 3009.6145,0"
       dist_rdm="10;2864899083"
       growth="0"
       do_bend="false"
       bender="61751.479,25610.604 , 5,0"
       bottom_edge_variation="500;2918911282"
       top_edge_variation="500;3957243083"
       bottom_tgt_variation="0.4;4287765036"
       top_tgt_variation="0;1"
       scale_bf="1"
       scale_bb="0.69"
       scale_tf="1"
       scale_tb="1"
       top_smth_variation="0;1"
       bottom_smth_variation="-0.1;1858235571"
       fat_output="true"
       stroke_width_top="1"
       stroke_width_bottom="1"
       front_thickness="1"
       back_thickness="0.25" />
    <radialGradient
       cx="74350"
       cy="44200"
       r="1000"
       gradientUnits="userSpaceOnUse"
       id="color-1">
      <stop
         offset="1"
         stop-color="#5c6bc0"
         id="stop7" />
      <stop
         offset="1"
         stop-color="#1a237e"
         id="stop9" />
    </radialGradient>
    <radialGradient
       cx="70380"
       cy="44200"
       r="1000"
       gradientUnits="userSpaceOnUse"
       id="color-2">
      <stop
         offset="1"
         stop-color="#5c6bc0"
         id="stop12" />
      <stop
         offset="1"
         stop-color="#1a237e"
         id="stop14" />
    </radialGradient>
    <radialGradient
       cx="66370"
       cy="44200"
       r="1000"
       gradientUnits="userSpaceOnUse"
       id="color-3">
      <stop
         offset="1"
         stop-color="#5c6bc0"
         id="stop17" />
      <stop
         offset="1"
         stop-color="#1a237e"
         id="stop19" />
    </radialGradient>
    <radialGradient
       cx="62370"
       cy="44200"
       r="1000"
       gradientUnits="userSpaceOnUse"
       id="color-4">
      <stop
         offset="1"
         stop-color="#5c6bc0"
         id="stop22" />
      <stop
         offset="1"
         stop-color="#1a237e"
         id="stop24" />
    </radialGradient>
    <radialGradient
       cx="72370"
       cy="35800"
       r="1000"
       gradientUnits="userSpaceOnUse"
       id="color-5">
      <stop
         offset="1"
         stop-color="#5c6bc0"
         id="stop27" />
      <stop
         offset="1"
         stop-color="#1a237e"
         id="stop29" />
    </radialGradient>
    <radialGradient
       cx="68370"
       cy="35800"
       r="1000"
       gradientUnits="userSpaceOnUse"
       id="color-6">
      <stop
         offset="1"
         stop-color="#5c6bc0"
         id="stop32" />
      <stop
         offset="1"
         stop-color="#1a237e"
         id="stop34" />
    </radialGradient>
    <radialGradient
       cx="64370"
       cy="35800"
       r="1000"
       gradientUnits="userSpaceOnUse"
       id="color-7">
      <stop
         offset="1"
         stop-color="#5c6bc0"
         id="stop37" />
      <stop
         offset="1"
         stop-color="#1a237e"
         id="stop39" />
    </radialGradient>
    <radialGradient
       cx="58370"
       cy="44200"
       r="1000"
       gradientUnits="userSpaceOnUse"
       id="color-8">
      <stop
         offset="1"
         stop-color="#5c6bc0"
         id="stop42" />
      <stop
         offset="1"
         stop-color="#1a237e"
         id="stop44" />
    </radialGradient>
    <radialGradient
       cx="60380"
       cy="35800"
       r="1000"
       gradientUnits="userSpaceOnUse"
       id="color-9">
      <stop
         offset="1"
         stop-color="#5c6bc0"
         id="stop47" />
      <stop
         offset="1"
         stop-color="#1a237e"
         id="stop49" />
    </radialGradient>
    <radialGradient
       cx="56370"
       cy="35800"
       r="1000"
       gradientUnits="userSpaceOnUse"
       id="color-10">
      <stop
         offset="1"
         stop-color="#5c6bc0"
         id="stop52" />
      <stop
         offset="1"
         stop-color="#1a237e"
         id="stop54" />
    </radialGradient>
    <radialGradient
       cx="83600"
       cy="40000"
       r="2020"
       gradientUnits="userSpaceOnUse"
       id="color-11">
      <stop
         offset="1"
         stop-color="#5c6bc0"
         id="stop57" />
      <stop
         offset="1"
         stop-color="#1a237e"
         id="stop59" />
    </radialGradient>
    <radialGradient
       cx="50000"
       cy="40000"
       r="1000"
       gradientUnits="userSpaceOnUse"
       id="color-12">
      <stop
         offset="1"
         stop-color="#5c6bc0"
         id="stop62" />
      <stop
         offset="1"
         stop-color="#1a237e"
         id="stop64" />
    </radialGradient>
    <radialGradient
       cx="74350"
       cy="44200"
       r="1000"
       gradientUnits="userSpaceOnUse"
       id="color-1-7"
       gradientTransform="translate(-4128.1434,-30377.774)">
      <stop
         offset="1"
         stop-color="#5c6bc0"
         id="stop7-1" />
      <stop
         offset="1"
         stop-color="#1a237e"
         id="stop9-1" />
    </radialGradient>
    <radialGradient
       cx="70380"
       cy="44200"
       r="1000"
       gradientUnits="userSpaceOnUse"
       id="color-2-5"
       gradientTransform="translate(-4128.1434,-30377.774)">
      <stop
         offset="1"
         stop-color="#5c6bc0"
         id="stop12-9" />
      <stop
         offset="1"
         stop-color="#1a237e"
         id="stop14-7" />
    </radialGradient>
    <radialGradient
       cx="66370"
       cy="44200"
       r="1000"
       gradientUnits="userSpaceOnUse"
       id="color-3-7"
       gradientTransform="translate(-4128.1434,-30377.774)">
      <stop
         offset="1"
         stop-color="#5c6bc0"
         id="stop17-6" />
      <stop
         offset="1"
         stop-color="#1a237e"
         id="stop19-7" />
    </radialGradient>
    <radialGradient
       cx="62370"
       cy="44200"
       r="1000"
       gradientUnits="userSpaceOnUse"
       id="color-4-3"
       gradientTransform="translate(-4128.1434,-30377.774)">
      <stop
         offset="1"
         stop-color="#5c6bc0"
         id="stop22-6" />
      <stop
         offset="1"
         stop-color="#1a237e"
         id="stop24-5" />
    </radialGradient>
    <radialGradient
       cx="72370"
       cy="35800"
       r="1000"
       gradientUnits="userSpaceOnUse"
       id="color-5-6"
       gradientTransform="translate(-4128.1434,-30377.774)">
      <stop
         offset="1"
         stop-color="#5c6bc0"
         id="stop27-3" />
      <stop
         offset="1"
         stop-color="#1a237e"
         id="stop29-9" />
    </radialGradient>
    <radialGradient
       cx="68370"
       cy="35800"
       r="1000"
       gradientUnits="userSpaceOnUse"
       id="color-6-4"
       gradientTransform="translate(-4128.1434,-30377.774)">
      <stop
         offset="1"
         stop-color="#5c6bc0"
         id="stop32-8" />
      <stop
         offset="1"
         stop-color="#1a237e"
         id="stop34-1" />
    </radialGradient>
    <radialGradient
       cx="64370"
       cy="35800"
       r="1000"
       gradientUnits="userSpaceOnUse"
       id="color-7-2"
       gradientTransform="translate(-4128.1434,-30377.774)">
      <stop
         offset="1"
         stop-color="#5c6bc0"
         id="stop37-9" />
      <stop
         offset="1"
         stop-color="#1a237e"
         id="stop39-3" />
    </radialGradient>
    <radialGradient
       cx="58370"
       cy="44200"
       r="1000"
       gradientUnits="userSpaceOnUse"
       id="color-8-9"
       gradientTransform="translate(-4128.1434,-30377.774)">
      <stop
         offset="1"
         stop-color="#5c6bc0"
         id="stop42-0" />
      <stop
         offset="1"
         stop-color="#1a237e"
         id="stop44-8" />
    </radialGradient>
    <radialGradient
       cx="60380"
       cy="35800"
       r="1000"
       gradientUnits="userSpaceOnUse"
       id="color-9-8"
       gradientTransform="translate(-4128.1434,-30377.774)">
      <stop
         offset="1"
         stop-color="#5c6bc0"
         id="stop47-5" />
      <stop
         offset="1"
         stop-color="#1a237e"
         id="stop49-0" />
    </radialGradient>
    <radialGradient
       cx="56370"
       cy="35800"
       r="1000"
       gradientUnits="userSpaceOnUse"
       id="color-10-9"
       gradientTransform="translate(-4128.1434,-30377.774)">
      <stop
         offset="1"
         stop-color="#5c6bc0"
         id="stop52-6" />
      <stop
         offset="1"
         stop-color="#1a237e"
         id="stop54-3" />
    </radialGradient>
    <radialGradient
       cx="83600"
       cy="40000"
       r="2020"
       gradientUnits="userSpaceOnUse"
       id="color-11-8"
       gradientTransform="translate(-4128.1434,-30377.774)">
      <stop
         offset="1"
         stop-color="#5c6bc0"
         id="stop57-5" />
      <stop
         offset="1"
         stop-color="#1a237e"
         id="stop59-6" />
    </radialGradient>
    <radialGradient
       cx="50000"
       cy="40000"
       r="1000"
       gradientUnits="userSpaceOnUse"
       id="color-12-1"
       gradientTransform="translate(-4128.1434,-30377.774)">
      <stop
         offset="1"
         stop-color="#5c6bc0"
         id="stop62-1" />
      <stop
         offset="1"
         stop-color="#1a237e"
         id="stop64-5" />
    </radialGradient>
  </defs>
  <sodipodi:namedview
     pagecolor="#ffffff"
     bordercolor="#666666"
     borderopacity="1"
     objecttolerance="10"
     gridtolerance="10"
     guidetolerance="10"
     inkscape:pageopacity="0"
     inkscape:pageshadow="2"
     inkscape:window-width="1600"
     inkscape:window-height="847"
     id="namedview1828"
     showgrid="false"
     inkscape:document-rotation="0"
     inkscape:zoom="1.7482099"
     inkscape:cx="374.31819"
     inkscape:cy="160.47024"
     inkscape:window-x="0"
     inkscape:window-y="27"
     inkscape:window-maximized="1"
     inkscape:current-layer="svg1826" />
  <svg
     width="0.135mm"
     height="0.085mm"
     viewBox="0 0 135 85"
     version="1.1"
     id="svg1824"
     style="fill:none;stroke-width:70004.33524041;stroke-miterlimit:4;stroke-dasharray:none">
    <g
       fill="#303f9f"
       fill-rule="nonzero"
       stroke="none"
       stroke-width="none"
       stroke-linecap="butt"
       stroke-linejoin="miter"
       stroke-miterlimit="10"
       stroke-dasharray=""
       stroke-dashoffset="0"
       font-family="none"
       font-weight="none"
       font-size="none"
       text-anchor="none"
       style="mix-blend-mode:normal;fill:none;stroke-width:70004.33524041;stroke-miterlimit:4;stroke-dasharray:none"
       id="g1822">
      <path
         d="M37900,25500v-1000h10400v1000z"
         stroke-width="0"
         id="path1812"
         style="fill:none;stroke-width:70004.33524041;stroke-miterlimit:4;stroke-dasharray:none" />
      <path
         d="M52185.69534,35464.23835c-256.39176,102.5567 -547.37698,-22.15125 -649.93368,-278.54301l-4000,-10000c-102.5567,-256.39176 22.15125,-547.37698 278.54301,-649.93368v0c256.39176,-102.5567 547.37698,22.15125 649.93368,278.54301l4000,10000c102.5567,256.39176 -22.15125,547.37698 -278.54301,649.93368zM52185.69534,14535.76165c256.39176,102.5567 381.09971,393.54193 278.54301,649.93368l-4000,10000c-102.5567,256.39176 -393.54193,381.09971 -649.93368,278.54301v0c-256.39176,-102.5567 -381.09971,-393.54193 -278.54301,-649.93368l4000,-10000c102.5567,-256.39176 393.54193,-381.09971 649.93368,-278.54301zM56312.34752,40390.4344c-215.63097,172.50477 -530.27715,137.54409 -702.78193,-78.08688l-4000,-5000c-172.50477,-215.63097 -137.54409,-530.27715 78.08688,-702.78193v0c215.63097,-172.50477 530.27715,-137.54409 702.78193,78.08688l4000,5000c172.50477,215.63097 137.54409,530.27715 -78.08688,702.78193zM56312.34752,29609.5656c215.63097,172.50477 250.59165,487.15096 78.08688,702.78193l-4000,5000c-172.50477,215.63097 -487.15096,250.59165 -702.78193,78.08688v0c-215.63097,-172.50477 -250.59165,-487.15096 -78.08688,-702.78193l4000,-5000c172.50477,-215.63097 487.15096,-250.59165 702.78193,-78.08688zM60423.99915,42764.99947c-146.35517,234.16827 -454.83036,305.35485 -688.99862,158.99968l-4000,-2500c-234.16827,-146.35517 -305.35485,-454.83036 -158.99968,-688.99862v0c146.35517,-234.16827 454.83036,-305.35485 688.99862,-158.99968l4000,2500c234.16827,146.35517 305.35485,454.83036 158.99968,688.99862zM60423.99915,37235.00053c146.35517,234.16827 75.16858,542.64346 -158.99968,688.99862l-4000,2500c-234.16827,146.35517 -542.64346,75.16858 -688.99862,-158.99968v0c-146.35517,-234.16827 -75.16858,-542.64346 158.99968,-688.99862l4000,-2500c234.16827,-146.35517 542.64346,-75.16858 688.99862,158.99968zM60423.99915,32764.99947c-146.35517,234.16827 -454.83036,305.35485 -688.99862,158.99968l-4000,-2500c-234.16827,-146.35517 -305.35485,-454.83036 -158.99968,-688.99862v0c146.35517,-234.16827 454.83036,-305.35485 688.99862,-158.99968l4000,2500c234.16827,146.35517 305.35485,454.83036 158.99968,688.99862zM60423.99915,27235.00053c146.35517,234.16827 75.16858,542.64346 -158.99968,688.99862l-4000,2500c-234.16827,146.35517 -542.64346,75.16858 -688.99862,-158.99968v0c-146.35517,-234.16827 -75.16858,-542.64346 158.99968,-688.99862l4000,-2500c234.16827,-146.35517 542.64346,-75.16858 688.99862,158.99968zM56312.34752,20390.4344c-215.63097,172.50477 -530.27715,137.54409 -702.78193,-78.08688l-4000,-5000c-172.50477,-215.63097 -137.54409,-530.27715 78.08688,-702.78193v0c215.63097,-172.50477 530.27715,-137.54409 702.78193,78.08688l4000,5000c172.50477,215.63097 137.54409,530.27715 -78.08688,702.78193zM56312.34752,9609.5656c215.63097,172.50477 250.59165,487.15096 78.08688,702.78193l-4000,5000c-172.50477,215.63097 -487.15096,250.59165 -702.78193,78.08688v0c-215.63097,-172.50477 -250.59165,-487.15096 -78.08688,-702.78193l4000,-5000c172.50477,-215.63097 487.15096,-250.59165 702.78193,-78.08688zM60423.99915,22764.99947c-146.35517,234.16827 -454.83036,305.35485 -688.99862,158.99968l-4000,-2500c-234.16827,-146.35517 -305.35485,-454.83036 -158.99968,-688.99862v0c146.35517,-234.16827 454.83036,-305.35485 688.99862,-158.99968l4000,2500c234.16827,146.35517 305.35485,454.83036 158.99968,688.99862zM60423.99915,17235.00053c146.35517,234.16827 75.16858,542.64346 -158.99968,688.99862l-4000,2500c-234.16827,146.35517 -542.64346,75.16858 -688.99862,-158.99968v0c-146.35517,-234.16827 -75.16858,-542.64346 158.99968,-688.99862l4000,-2500c234.16827,-146.35517 542.64346,-75.16858 688.99862,158.99968zM60423.99915,12764.99947c-146.35517,234.16827 -454.83036,305.35485 -688.99862,158.99968l-4000,-2500c-234.16827,-146.35517 -305.35485,-454.83036 -158.99968,-688.99862v0c146.35517,-234.16827 454.83036,-305.35485 688.99862,-158.99968l4000,2500c234.16827,146.35517 305.35485,454.83036 158.99968,688.99862zM60423.99915,7235.00053c146.35517,234.16827 75.16858,542.64346 -158.99968,688.99862l-4000,2500c-234.16827,146.35517 -542.64346,75.16858 -688.99862,-158.99968v0c-146.35517,-234.16827 -75.16858,-542.64346 158.99968,-688.99862l4000,-2500c234.16827,-146.35517 542.64346,-75.16858 688.99862,158.99968z"
         stroke-width="1"
         id="path1814"
         style="fill:none;stroke-width:70004.33524041;stroke-miterlimit:4;stroke-dasharray:none" />
      <path
         d="M37000,22440h800l1230,2460l-1230,2460h-800l-1230,-2460z"
         stroke-width="1"
         id="path1816"
         style="fill:none;stroke-width:70004.33524041;stroke-miterlimit:4;stroke-dasharray:none" />
      <path
         d="M48100,25400v-800v0v800z"
         stroke-width="0"
         id="path1818"
         style="fill:none;stroke-width:70004.33524041;stroke-miterlimit:4;stroke-dasharray:none" />
      <path
         d="M41700,32500v-800v0v800z"
         stroke-width="0"
         id="path1820"
         style="fill:none;stroke-width:70004.33524041;stroke-miterlimit:4;stroke-dasharray:none" />
    </g>
  </svg>
  <path
     id="path2513"
     style="font-family:none;mix-blend-mode:normal;fill:none;fill-rule:nonzero;stroke:#000000;stroke-width:0.944882;stroke-linecap:butt;stroke-linejoin:miter;stroke-miterlimit:10;stroke-dasharray:none;stroke-dashoffset:0;stroke-opacity:1"
     d="M 250.60547 116.24219 C 250.53567 116.23975 250.46651 116.25052 250.39648 116.25586 C 250.35322 117.87712 250.31218 119.61367 250.26953 121.26172 L 251.42969 123.11719 L 255.39844 122.33594 L 252.14453 117.12891 C 251.79882 116.57575 251.21213 116.26336 250.60547 116.24219 z M 269.37305 116.24219 C 268.76696 116.26336 268.18165 116.57575 267.83594 117.12891 L 267.66992 117.39453 C 267.64214 118.25327 267.61337 119.05976 267.58594 119.93164 L 270.95703 119.26758 L 271.04102 119.13281 C 271.59415 118.24776 271.32451 117.08246 270.43945 116.5293 C 270.10756 116.32187 269.7367 116.22948 269.37305 116.24219 z M 267.58594 119.93164 L 265.87305 120.26953 L 259.99023 129.68359 L 257.71875 126.05078 C 257.78194 128.53076 257.84778 130.97428 257.91016 133.48633 L 258.38672 134.25 C 258.39553 134.2641 258.40691 134.27526 258.41602 134.28906 C 258.43911 134.32407 258.46468 134.35706 258.49023 134.39062 C 258.51994 134.42961 258.55095 134.46696 258.58398 134.50391 C 258.6078 134.53061 258.63119 134.55694 258.65625 134.58203 C 258.68584 134.61161 258.71814 134.63821 258.75 134.66602 C 258.77105 134.68443 258.78652 134.70695 258.80859 134.72461 L 266.97461 141.25586 C 267.01864 139.65427 267.06302 138.11026 267.10742 136.52344 L 262.48242 132.82422 L 267.43555 124.90039 C 267.4855 123.23948 267.53493 121.55251 267.58594 119.93164 z M 308.01367 116.41992 C 308.08645 117.65202 308.16248 118.80757 308.23242 120.09766 L 308.83594 119.13281 C 309.38911 118.24776 309.12138 117.08246 308.23633 116.5293 C 308.16476 116.48457 308.08846 116.45402 308.01367 116.41992 z M 233.24805 117.14844 C 233.22926 117.81199 233.21201 118.54788 233.19336 119.2168 L 233.24609 119.13281 C 233.63845 118.50502 233.60963 117.73975 233.24805 117.14844 z M 291.33984 119.36914 C 291.44193 121.87008 291.54315 124.35688 291.64062 126.98242 L 295.29297 132.82422 L 291.93555 135.50977 C 291.98988 137.07641 292.04404 138.63536 292.09766 140.21875 L 298.96484 134.72461 C 298.98431 134.70901 298.99887 134.69003 299.01758 134.67383 C 299.05265 134.64353 299.08867 134.61447 299.12109 134.58203 C 299.148 134.55505 299.17183 134.52492 299.19727 134.49609 C 299.22505 134.46465 299.25195 134.43328 299.27734 134.40039 C 299.30565 134.36367 299.33401 134.32751 299.35938 134.28906 C 299.36848 134.27526 299.37987 134.2641 299.38867 134.25 L 301.69727 130.55664 C 301.80281 127.92368 301.91084 125.37344 302.02148 122.9043 L 297.78516 129.68359 L 291.33984 119.36914 z M 216.11328 119.95312 C 216.04629 122.13941 215.98525 124.52838 215.91992 126.77344 L 217.78125 129.75391 L 221.75 128.9707 L 216.11328 119.95312 z M 188.57422 123.00391 L 184.39844 129.68359 L 182.00781 125.85938 C 181.91177 128.04255 181.81895 130.27197 181.72656 132.53906 L 182.79688 134.25 C 182.80569 134.2641 182.81705 134.27526 182.82617 134.28906 C 182.84876 134.32331 182.87351 134.35579 182.89844 134.38867 C 182.92858 134.42834 182.96053 134.46633 182.99414 134.50391 C 183.01795 134.53061 183.04133 134.55694 183.06641 134.58203 C 183.09601 134.61161 183.12832 134.63821 183.16016 134.66602 C 183.18122 134.68443 183.19669 134.70695 183.21875 134.72461 L 185.06836 136.20508 L 189.04688 135.41992 C 189.03628 135.12498 189.02626 134.81518 189.01562 134.52148 L 186.89258 132.82422 L 188.8457 129.69922 C 188.7576 127.38042 188.66598 125.20394 188.57422 123.00391 z M 189.04688 135.41992 C 189.09501 136.75936 189.14198 138.1381 189.18945 139.5 L 198.28125 146.77344 C 198.32912 145.17234 198.37966 143.64708 198.42773 142.05078 L 189.92188 135.24805 L 189.04688 135.41992 z M 227.84766 127.76953 L 223.29883 128.66602 C 223.35417 130.6339 223.40839 132.64036 223.46289 134.64062 C 223.48556 134.62158 223.50853 134.6028 223.5293 134.58203 C 223.55398 134.55727 223.57614 134.53023 223.59961 134.50391 C 223.63068 134.46921 223.66137 134.43495 223.68945 134.39844 C 223.71924 134.3597 223.74694 134.31997 223.77344 134.2793 C 223.78039 134.26865 223.79011 134.26084 223.79688 134.25 L 227.84766 127.76953 z M 223.29883 128.66602 C 223.29219 128.42992 223.28595 128.18476 223.2793 127.94922 L 222.76562 128.77148 L 223.29883 128.66602 z M 215.6582 136.05859 L 206.49023 143.39062 C 206.57136 146.23534 206.65747 148.91466 206.73828 151.77734 L 215.11914 155.13086 C 215.15636 153.76258 215.19528 152.4795 215.23242 151.10742 L 207.00977 147.81836 L 215.51758 141.01172 C 215.56335 139.33585 215.61206 137.72229 215.6582 136.05859 z M 284.14258 141.74219 L 278.88672 145.94531 L 275.0332 142.86328 C 275.11995 145.90571 275.21041 148.79031 275.29688 151.83789 L 279.58984 150.12109 C 279.61641 150.11047 279.63829 150.0937 279.66406 150.08203 C 279.66864 150.07996 279.6732 150.07827 279.67773 150.07617 C 279.70623 150.06297 279.73567 150.05378 279.76367 150.03906 C 279.79379 150.02328 279.8222 150.00381 279.85156 149.98633 C 279.90716 149.9533 279.95859 149.91688 280.00977 149.87891 C 280.02851 149.86499 280.04995 149.85652 280.06836 149.8418 L 280.0918 149.82227 C 280.09361 149.82075 280.09584 149.81987 280.09766 149.81836 L 283.98438 146.70898 C 284.03653 145.01753 284.09004 143.41853 284.14258 141.74219 z M 266.69336 151.20898 L 258.44727 154.50781 C 258.48115 155.87142 258.51669 157.18232 258.55078 158.53711 L 266.57617 155.32617 C 266.61411 153.92883 266.65548 152.60766 266.69336 151.20898 z M 224.00977 154.61719 C 224.04662 156.01487 224.08606 157.33957 224.12305 158.73242 L 232.07227 161.91211 C 232.10728 160.55959 232.14294 159.24639 232.17773 157.88477 L 224.00977 154.61719 z M 249.33594 158.15234 L 241.42969 161.31445 C 241.88326 178.90738 242.35736 195.73625 242.92969 208.60156 L 247.89648 206.11914 C 247.96238 204.52858 248.02254 202.76553 248.08594 201.07422 L 242.98242 198.52148 L 242.98242 164.76367 L 249.23242 162.26367 C 249.26708 160.88992 249.30155 159.53658 249.33594 158.15234 z "
     transform="scale(264.58333)" />
  <circle
     style="display:inline;fill:none;fill-opacity:0.11421;stroke:#000000;stroke-width:113.25;stroke-miterlimit:4;stroke-dasharray:none;stroke-opacity:1;stop-color:#000000"
     id="path1356"
     cx="64542.379"
     cy="39561.449"
     r="44943.375" />
  <path
     id="path68"
     style="font-family:none;mix-blend-mode:normal;fill:none;fill-rule:nonzero;stroke:#000000;stroke-width:88.1944;stroke-linecap:butt;stroke-linejoin:miter;stroke-miterlimit:10;stroke-dasharray:none;stroke-dashoffset:0;stroke-opacity:1"
     d="m 7241.2976,-6702.0494 c -552.286,0 -999.9398,447.6538 -999.9398,999.939 0,507.8497 379.8967,922.2983 870.2305,986.5029 v 3083.5327 H 1858.1645 c -64.2064,-490.3343 -479.171,-870.231 -987.02013,-870.231 -552.286,0 -999.93981,447.6539 -999.93981,999.939 0,552.28487 447.65381,999.93867 999.93981,999.93867 507.67453,0 922.59153,-379.6262 987.02013,-869.71417 h 7253.3033 v 3083.016 c -490.3443,64.1964 -870.2304,479.1636 -870.2304,987.0199 0,552.2849 447.6538,999.9387 999.9369,999.9387 552.286,0 1000.4557,-447.6538 1000.4557,-999.9387 0,-507.6809 -380.1347,-922.6005 -870.2307,-987.0199 v -3083.016 h 3739.8247 v 3083.016 c -490.098,64.4194 -869.715,479.339 -869.715,987.0199 0,552.2849 447.654,999.9387 999.938,999.9387 552.286,0 999.939,-447.6538 999.939,-999.9387 0,-507.8563 -379.888,-922.8235 -870.23,-987.0199 v -3083.016 h 3740.34 v 3083.016 c -490.344,64.1964 -870.233,479.1636 -870.233,987.0199 0,552.2849 447.654,999.9387 999.94,999.9387 552.286,0 999.94,-447.6538 999.94,-999.9387 0,-507.6809 -379.619,-922.6005 -869.715,-987.0199 v -3083.016 h 3739.822 v 3084.0494 c -485.365,68.6544 -859.896,481.6705 -859.896,985.9865 0,552.2849 447.654,999.9387 999.94,999.9387 552.286,0 999.94,-447.6538 999.94,-999.9387 0,-511.2213 -384.979,-928.1822 -880.049,-988.0537 v -3081.9822 h 3740.338 v 3080.9488 c -499.796,55.4601 -890.384,474.5008 -890.384,989.0871 0,552.2849 448.17,999.9387 1000.456,999.9387 552.286,0 999.939,-447.6538 999.939,-999.9387 0,-500.951 -369.448,-912.1489 -850.077,-984.953 v -3085.0829 h 7086.388 c 67.382,1054.67886 941.623,1889.80703 2013.313,1889.80703 1115.616,0 2020.033,-904.41676 2020.033,-2020.03153 0,-1115.6151 -904.417,-2020.0318 -2020.033,-2020.0318 -1071.862,0 -1946.182,835.4026 -2013.313,1890.3238 h -9086.267 v -3083.5327 c 490.087,-64.4274 869.714,-478.8284 869.714,-986.5029 0,-552.2852 -447.654,-999.939 -999.937,-999.939 -552.286,0 -999.94,447.6538 -999.94,999.939 0,507.6745 379.627,922.0755 869.715,986.5029 v 3083.5327 h -3739.825 v -3083.5327 c 490.334,-64.2046 870.231,-478.6532 870.231,-986.5029 0,-552.2852 -447.654,-999.939 -999.937,-999.939 -552.286,0 -1000.456,447.6538 -1000.456,999.939 0,507.6745 380.143,922.0755 870.23,986.5029 v 3083.5327 h -3739.824 v -3083.5327 c 490.09,-64.4274 869.714,-478.8284 869.714,-986.5029 0,-552.2852 -447.654,-999.939 -999.937,-999.939 -552.286,0 -999.94,447.6538 -999.94,999.939 0,507.8497 379.897,922.2983 870.231,986.5029 v 3083.5327 H 11371.276 V -4714.574 c 495.062,-59.8805 880.052,-476.3225 880.052,-987.5364 0,-552.2852 -447.654,-999.939 -999.94,-999.939 -552.286,0 -999.939,447.6538 -999.939,999.939 0,504.3104 374.538,916.8082 859.895,985.4694 v 3084.5662 H 7371.5229 v -3083.5327 c 490.0877,-64.4274 869.7145,-478.8284 869.7145,-986.5029 0,-552.2852 -447.6538,-999.939 -999.9398,-999.939 z" />
  <path
     id="path3014"
     style="fill:none;fill-opacity:1;stroke:#000000;stroke-width:247.683;stroke-miterlimit:10;stroke-dasharray:none;stroke-opacity:1;stop-color:#000000"
     d="m 121483.08,6755.0013 c -103.65,0.9643 -205.31,1601.3369 -297.91,3687.9547 a 3816.3538,3816.3538 0 0 1 528.54,-49.823 c -58.51,-2062.0863 -127.92,-3639.0871 -230.63,-3638.1317 z m 1290.78,100.1602 c -102.87,-17.0622 -203.79,1546.1864 -295.85,3596.0135 a 3816.3538,3816.3538 0 0 1 530.08,134.574 c -59.26,-2093.6526 -129.22,-3713.174 -234.23,-3730.5875 z m -2581.05,24.6548 c -110.84,20.5408 -220.53,1786.514 -317.95,4037.2317 a 3816.3538,3816.3538 0 0 1 554.22,-267.608 c -59.63,-2141.6271 -130.13,-3789.2941 -236.27,-3769.6237 z m 3871.84,311.2677 c -108.2,-38.6754 -215.05,1604.4015 -310.75,3735.21 a 3816.3538,3816.3538 0 0 1 562.95,407.319 c -62.68,-2281.1396 -136.82,-4101.2894 -252.2,-4142.529 z m -5162.63,50.8507 c -131.06,49.7952 -260.13,2332.8063 -369.3,5005.9623 a 3816.3538,3816.3538 0 0 1 625.62,-786.9 c -63.47,-2385.8613 -138.65,-4263.7642 -256.32,-4219.0623 z m 6453.41,556.7886 c -124.89,-73.974 -248.5,1892.6035 -354.41,4320.2497 a 3816.3538,3816.3538 0 0 1 609.19,1778.231 l 61.11,-18.491 c -78.28,-3011.647 -159.57,-5987.3992 -315.89,-6079.9897 z m 315.89,6079.9897 c 2.53,97.15 5.18,189.473 7.71,286.612 80.68,3108.479 160.69,6162.854 322.05,6043.006 0,0 81.36,-2934.843 202.38,-5831.898 9.54,-228.55 20.79,-442.143 30.81,-668.763 z m 562.95,-171.043 714.48,-217.785 c -74.46,-2341.652 -154.31,-4580.7311 -302.02,-4718.8359 -148.64,-138.9763 -295.45,2290.6349 -412.46,4936.6209 z m 714.48,-217.785 c 6.89,216.594 14.24,425.644 21.06,642.567 80.68,2562.14 160.69,5037.843 322.06,4843.138 0,0 81.35,-2280.61 202.38,-4494.374 22.13,-404.899 46.82,-792.785 71.39,-1178.81 z m 616.89,-187.479 647.71,-197.239 c -67.65,-1292.647 -145.44,-2497.699 -275.84,-2715.116 -131.85,-219.843 -262.12,1187.772 -371.87,2912.355 z m 647.71,-197.239 c 16.08,307.51 31.74,617.983 47.25,923.53 80.68,1589.872 161.18,2990.001 322.57,2498.357 0,0 80.59,-908.166 161.28,-1816.24 80.69,-908.074 161.29,-1816.241 161.29,-1816.241 z M 117611.76,7882.9609 c -161.31,100.334 -321.79,3155.3841 -442.76,6185.2861 -35.31,884.127 -58.25,1618.059 -85.78,2423.88 l 901.96,-274.799 c -17,-638.917 -33.45,-1290.761 -49.83,-1953.383 -80.66,-3263.117 -162.29,-6481.3184 -323.59,-6380.9841 z m 373.42,8334.3671 c 66.68,2507.463 143.16,4633.984 271.71,4697.263 0,0 60.31,-2259.74 141.26,-4822.592 z m 412.97,-125.329 76.52,-23.113 a 3816.3538,3816.3538 0 0 1 -71.39,-134.575 c -1.76,55.201 -3.4,102.885 -5.13,157.688 z m -1314.93,400.128 -368.28,111.974 c 62.28,1881.822 135.95,3408.724 251.68,3498.934 0,0 49.78,-1655.185 116.6,-3610.908 z m -368.28,111.974 c -24.53,-740.92 -47.59,-1520.715 -70.38,-2313.96 -80.65,-2807.965 -161.78,-5544.8226 -323.07,-5386.0585 -161.3,158.7642 -322.3,2633.6315 -443.28,5068.6265 -53.17,1070.176 -94.64,2070.327 -128.93,2925.196 z m -965.66,293.804 -278.9,84.751 c 53.34,966.795 117,1706.29 205.97,1820.35 0,0 29.22,-814.87 72.93,-1905.101 z m -278.9,84.751 c -43.34,-785.47 -80.44,-1713.654 -116.59,-2638.583 -80.66,-2063.414 -161.79,-4001.573 -323.09,-3707.987 -161.26,293.521 -241.66,1938.378 -281.99,3509.721 -40.33,1571.388 -40.58,3069.016 -40.58,3069.016 z m 9371.92,-461.765 a 3816.3538,3816.3538 0 0 1 -384.2,432.488 c 62.49,2289.338 135.57,4082.44 252.2,4027.986 0,0 56.35,-2079.198 132,-4460.474 z m -5548.37,559.357 c 62.6,2387.665 136.23,4295.832 253.23,4328.468 0,0 46.75,-1841.209 108.89,-4048.019 a 3816.3538,3816.3538 0 0 1 -362.12,-280.449 z m 4228.83,536.243 a 3816.3538,3816.3538 0 0 1 -336.95,149.984 c 58.76,2097.825 128.05,3706.512 233.71,3679.222 0,0 44.06,-1731.991 103.24,-3829.206 z m -2919.04,213.161 c 58.87,2147.009 128.23,3809.252 234.23,3819.448 0,0 40.7,-1668.587 96.05,-3725.964 a 3816.3538,3816.3538 0 0 1 -330.28,-93.484 z m 1619.52,172.071 a 3816.3538,3816.3538 0 0 1 -323.59,21.573 c 57.84,2066.686 126.13,3646.099 229.07,3638.13 0,0 40.03,-1635.612 94.52,-3659.703 z" />
</svg>
