<svg width="135mm" height="85mm" viewBox="0 0 135000 85000"><g xmlns="http://www.w3.org/2000/svg" fill="#303f9f" fill-rule="nonzero" stroke="none" stroke-width="none" stroke-linecap="butt" stroke-linejoin="miter" stroke-miterlimit="10" stroke-dasharray="" stroke-dashoffset="0" font-family="none" font-weight="none" font-size="none" text-anchor="none" style="mix-blend-mode: normal"><path d="M41700,32500v-800v0v800z" stroke-width="0"/><path d="M52185.69534,35464.23835c-256.39176,102.5567 -547.37698,-22.15125 -649.93368,-278.54301l-4000,-10000c-102.5567,-256.39176 22.15125,-547.37698 278.54301,-649.93368v0c256.39176,-102.5567 547.37698,22.15125 649.93368,278.54301l4000,10000c102.5567,256.39176 -22.15125,547.37698 -278.54301,649.93368zM52185.69534,14535.76165c256.39176,102.5567 381.09971,393.54193 278.54301,649.93368l-4000,10000c-102.5567,256.39176 -393.54193,381.09971 -649.93368,278.54301v0c-256.39176,-102.5567 -381.09971,-393.54193 -278.54301,-649.93368l4000,-10000c102.5567,-256.39176 393.54193,-381.09971 649.93368,-278.54301zM56312.34752,40390.4344c-215.63097,172.50477 -530.27715,137.54409 -702.78193,-78.08688l-4000,-5000c-172.50477,-215.63097 -137.54409,-530.27715 78.08688,-702.78193v0c215.63097,-172.50477 530.27715,-137.54409 702.78193,78.08688l4000,5000c172.50477,215.63097 137.54409,530.27715 -78.08688,702.78193zM56312.34752,29609.5656c215.63097,172.50477 250.59165,487.15096 78.08688,702.78193l-4000,5000c-172.50477,215.63097 -487.15096,250.59165 -702.78193,78.08688v0c-215.63097,-172.50477 -250.59165,-487.15096 -78.08688,-702.78193l4000,-5000c172.50477,-215.63097 487.15096,-250.59165 702.78193,-78.08688zM60423.99915,42764.99947c-146.35517,234.16827 -454.83036,305.35485 -688.99862,158.99968l-4000,-2500c-234.16827,-146.35517 -305.35485,-454.83036 -158.99968,-688.99862v0c146.35517,-234.16827 454.83036,-305.35485 688.99862,-158.99968l4000,2500c234.16827,146.35517 305.35485,454.83036 158.99968,688.99862zM60423.99915,37235.00053c146.35517,234.16827 75.16858,542.64346 -158.99968,688.99862l-4000,2500c-234.16827,146.35517 -542.64346,75.16858 -688.99862,-158.99968v0c-146.35517,-234.16827 -75.16858,-542.64346 158.99968,-688.99862l4000,-2500c234.16827,-146.35517 542.64346,-75.16858 688.99862,158.99968zM60423.99915,32764.99947c-146.35517,234.16827 -454.83036,305.35485 -688.99862,158.99968l-4000,-2500c-234.16827,-146.35517 -305.35485,-454.83036 -158.99968,-688.99862v0c146.35517,-234.16827 454.83036,-305.35485 688.99862,-158.99968l4000,2500c234.16827,146.35517 305.35485,454.83036 158.99968,688.99862zM60423.99915,27235.00053c146.35517,234.16827 75.16858,542.64346 -158.99968,688.99862l-4000,2500c-234.16827,146.35517 -542.64346,75.16858 -688.99862,-158.99968v0c-146.35517,-234.16827 -75.16858,-542.64346 158.99968,-688.99862l4000,-2500c234.16827,-146.35517 542.64346,-75.16858 688.99862,158.99968zM56312.34752,20390.4344c-215.63097,172.50477 -530.27715,137.54409 -702.78193,-78.08688l-4000,-5000c-172.50477,-215.63097 -137.54409,-530.27715 78.08688,-702.78193v0c215.63097,-172.50477 530.27715,-137.54409 702.78193,78.08688l4000,5000c172.50477,215.63097 137.54409,530.27715 -78.08688,702.78193zM56312.34752,9609.5656c215.63097,172.50477 250.59165,487.15096 78.08688,702.78193l-4000,5000c-172.50477,215.63097 -487.15096,250.59165 -702.78193,78.08688v0c-215.63097,-172.50477 -250.59165,-487.15096 -78.08688,-702.78193l4000,-5000c172.50477,-215.63097 487.15096,-250.59165 702.78193,-78.08688zM60423.99915,22764.99947c-146.35517,234.16827 -454.83036,305.35485 -688.99862,158.99968l-4000,-2500c-234.16827,-146.35517 -305.35485,-454.83036 -158.99968,-688.99862v0c146.35517,-234.16827 454.83036,-305.35485 688.99862,-158.99968l4000,2500c234.16827,146.35517 305.35485,454.83036 158.99968,688.99862zM60423.99915,17235.00053c146.35517,234.16827 75.16858,542.64346 -158.99968,688.99862l-4000,2500c-234.16827,146.35517 -542.64346,75.16858 -688.99862,-158.99968v0c-146.35517,-234.16827 -75.16858,-542.64346 158.99968,-688.99862l4000,-2500c234.16827,-146.35517 542.64346,-75.16858 688.99862,158.99968zM60423.99915,12764.99947c-146.35517,234.16827 -454.83036,305.35485 -688.99862,158.99968l-4000,-2500c-234.16827,-146.35517 -305.35485,-454.83036 -158.99968,-688.99862v0c146.35517,-234.16827 454.83036,-305.35485 688.99862,-158.99968l4000,2500c234.16827,146.35517 305.35485,454.83036 158.99968,688.99862zM60423.99915,7235.00053c146.35517,234.16827 75.16858,542.64346 -158.99968,688.99862l-4000,2500c-234.16827,146.35517 -542.64346,75.16858 -688.99862,-158.99968v0c-146.35517,-234.16827 -75.16858,-542.64346 158.99968,-688.99862l4000,-2500c234.16827,-146.35517 542.64346,-75.16858 688.99862,158.99968z" stroke-width="1"/><path d="M48100,25400v-800v0v800z" stroke-width="0"/><path d="M37900,25500v-1000h10400v1000z" stroke-width="0"/><path d="M37000,22440h800l1230,2460l-1230,2460h-800l-1230,-2460z" stroke-width="1"/></g></svg>