<?xml version="1.0" encoding="UTF-8" standalone="no"?>
<svg
   xmlns:dc="http://purl.org/dc/elements/1.1/"
   xmlns:cc="http://creativecommons.org/ns#"
   xmlns:rdf="http://www.w3.org/1999/02/22-rdf-syntax-ns#"
   xmlns:svg="http://www.w3.org/2000/svg"
   xmlns="http://www.w3.org/2000/svg"
   xmlns:sodipodi="http://sodipodi.sourceforge.net/DTD/sodipodi-0.dtd"
   xmlns:inkscape="http://www.inkscape.org/namespaces/inkscape"
   width="377.95273"
   height="377.95273"
   id="svg2"
   version="1.1"
   inkscape:version="1.0.1 (3bc2e813f5, 2020-09-07)"
   sodipodi:docname="sample2.svg">
  <sodipodi:namedview
     id="base"
     pagecolor="#ffffff"
     bordercolor="#666666"
     borderopacity="1.0"
     inkscape:pageopacity="0.0"
     inkscape:pageshadow="2"
     inkscape:zoom="2.7551927"
     inkscape:cx="153.64147"
     inkscape:cy="154.55792"
     inkscape:document-units="mm"
     inkscape:current-layer="layer1"
     showgrid="false"
     units="mm"
     inkscape:window-width="1600"
     inkscape:window-height="847"
     inkscape:window-x="0"
     inkscape:window-y="27"
     inkscape:window-maximized="1"
     inkscape:document-rotation="0" />
  <defs
     id="defs4" />
  <metadata
     id="metadata7">
    <rdf:RDF>
      <cc:Work
         rdf:about="">
        <dc:format>image/svg+xml</dc:format>
        <dc:type
           rdf:resource="http://purl.org/dc/dcmitype/StillImage" />
        <dc:title />
      </cc:Work>
    </rdf:RDF>
  </metadata>
  <g
     inkscape:label="Layer 1"
     inkscape:groupmode="layer"
     id="layer1"
     transform="translate(0,-744.56692)">
    <g
       inkscape:label="Gear24"
       transform="translate(240.82915,963.11815)"
       id="g3047">
      <path
         inkscape:connector-curvature="0"
         style="fill:none;stroke:#000000;stroke-width:1.06667"
         d="m 74.455467,-5.9957333 1.870933,-0.1504 4.986667,0.8170666 6.9312,2.9002667 v 4.8576 l -6.9312,2.9002667 -4.986667,0.8170666 -1.870933,-0.1504 -0.984534,7.4837337 1.845334,0.338133 4.6048,2.08 5.9456,4.5952 -1.2576,4.693333 -7.4464,1.006934 L 72.1344,25.691733 70.366933,25.0624 67.4784,32.0352 l 1.694933,0.805333 3.9104,3.2 4.552534,5.9776 -2.4288,4.208 -7.4528,-0.954666 -4.727467,-1.7856 -1.544533,-1.0656 -4.5952,5.988266 1.429333,1.216 2.948267,4.103467 2.8512,6.952533 -3.435734,3.435734 -6.952533,-2.8512 -4.103467,-2.948267 -1.216,-1.429333 -5.988266,4.5952 1.0656,1.544533 1.7856,4.727467 0.954666,7.4528 -4.208,2.4288 -5.9776,-4.552534 -3.2,-3.9104 -0.805333,-1.694933 -6.9728,2.888533 0.629333,1.767467 0.501334,5.028267 -1.006934,7.4464 -4.693333,1.2576 -4.5952,-5.9456 -2.08,-4.6048 -0.338133,-1.845334 -7.4837337,0.984534 0.1504,1.870933 -0.8170666,4.986667 -2.9002667,6.9312 h -4.8576 l -2.9002667,-6.9312 -0.8170666,-4.986667 0.1504,-1.870933 -7.4837337,-0.984534 -0.338133,1.845334 -2.08,4.6048 -4.5952,5.9456 -4.693333,-1.2576 -1.006934,-7.4464 0.501334,-5.028267 0.629333,-1.767467 -6.9728,-2.888533 -0.805333,1.694933 -3.2,3.9104 -5.9776,4.552534 -4.208,-2.4288 0.954666,-7.4528 1.7856,-4.727467 1.0656,-1.544533 -5.988266,-4.5952 -1.216,1.429333 -4.103467,2.948267 -6.952533,2.8512 -3.435734,-3.435734 2.8512,-6.952533 2.948267,-4.103467 1.429333,-1.216 -4.5952,-5.988266 -1.544533,1.0656 -4.727467,1.7856 -7.4528,0.954666 -2.4288,-4.208 4.552534,-5.9776 3.9104,-3.2 1.694933,-0.805333 -2.888533,-6.9728 -1.767467,0.629333 -5.028267,0.501334 -7.4464,-1.006934 -1.2576,-4.693333 5.9456,-4.5952 4.6048,-2.08 1.845334,-0.338133 -0.984534,-7.4837337 -1.870933,0.1504 -4.986667,-0.8170666 -6.9312,-2.9002667 v -4.8576 l 6.9312,-2.9002667 4.986667,-0.8170666 1.870933,0.1504 0.984534,-7.4837337 -1.845334,-0.338133 -4.6048,-2.08 -5.9456,-4.5952 1.2576,-4.693333 7.4464,-1.006934 5.028267,0.501334 1.767467,0.629333 2.888533,-6.9728 -1.694933,-0.805333 -3.9104,-3.2 -4.552534,-5.9776 2.4288,-4.208 7.4528,0.954666 4.727467,1.7856 1.544533,1.0656 4.5952,-5.988266 -1.429333,-1.216 -2.948267,-4.103467 -2.8512,-6.952533 3.435734,-3.435734 6.952533,2.8512 4.103467,2.948267 1.216,1.429333 5.988266,-4.5952 -1.0656,-1.544533 -1.7856,-4.727467 -0.954666,-7.4528 4.208,-2.4288 5.9776,4.552534 3.2,3.9104 0.805333,1.694933 6.9728,-2.888533 -0.629333,-1.767467 -0.501334,-5.028267 1.006934,-7.4464 4.693333,-1.2576 4.5952,5.9456 2.08,4.6048 0.338133,1.845334 7.4837337,-0.984534 -0.1504,-1.870933 0.8170666,-4.986667 2.9002667,-6.9312 h 4.8576 l 2.9002667,6.9312 0.8170666,4.986667 -0.1504,1.870933 7.4837337,0.984534 0.338133,-1.845334 2.08,-4.6048 4.5952,-5.9456 4.693333,1.2576 1.006934,7.4464 -0.501334,5.028267 -0.629333,1.767467 6.9728,2.888533 0.805333,-1.694933 3.2,-3.9104 5.9776,-4.552534 4.208,2.4288 -0.954666,7.4528 -1.7856,4.727467 -1.0656,1.544533 5.988266,4.5952 1.216,-1.429333 4.103467,-2.948267 6.952533,-2.8512 3.435734,3.435734 -2.8512,6.952533 -2.948267,4.103467 -1.429333,1.216 4.5952,5.988266 1.544533,-1.0656 4.727467,-1.7856 7.4528,-0.954666 2.4288,4.208 -4.552534,5.9776 -3.9104,3.2 -1.694933,0.805333 2.888533,6.9728 1.767467,-0.629333 5.028267,-0.501334 7.4464,1.006934 1.2576,4.693333 -5.9456,4.5952 -4.6048,2.08 -1.845334,0.338133 z"
         id="path3049" />
    </g>
    <g
       id="g3070"
       transform="translate(90.356461,970.08481)"
       inkscape:label="Gear12">
      <path
         id="path3072"
         d="m 33.592533,-4.9333333 4.288,-0.6293334 L 40.394667,-5.3184 47.488,-2.1077333 V 2.1077333 L 40.394667,5.3184 37.880533,5.5626667 33.592533,4.9333333 31.5584,12.5248 l 4.027733,1.597867 2.056534,1.4688 4.536533,6.327466 -2.107733,3.650134 -7.7472,-0.765867 -2.3008,-1.045333 -3.397334,-2.689067 -5.557333,5.557333 2.689067,3.397334 1.045333,2.3008 0.765867,7.7472 -3.650134,2.107733 -6.327466,-4.536533 -1.4688,-2.056534 L 12.5248,31.5584 4.9333333,33.592533 5.5626667,37.880533 5.3184,40.394667 2.1077333,47.488 H -2.1077333 L -5.3184,40.394667 l -0.2442667,-2.514134 0.6293334,-4.288 -7.5914667,-2.034133 -1.597867,4.027733 -1.4688,2.056534 -6.327466,4.536533 -3.650134,-2.107733 0.765867,-7.7472 1.045333,-2.3008 2.689067,-3.397334 -5.557333,-5.557333 -3.397334,2.689067 -2.3008,1.045333 -7.7472,0.765867 -2.107733,-3.650134 4.536533,-6.327466 2.056534,-1.4688 4.027733,-1.597867 -2.034133,-7.5914667 -4.288,0.6293334 L -40.394667,5.3184 -47.488,2.1077333 v -4.2154666 l 7.093333,-3.2106667 2.514134,-0.2442667 4.288,0.6293334 2.034133,-7.5914667 -4.027733,-1.597867 -2.056534,-1.4688 -4.536533,-6.327466 2.107733,-3.650134 7.7472,0.765867 2.3008,1.045333 3.397334,2.689067 5.557333,-5.557333 -2.689067,-3.397334 -1.045333,-2.3008 -0.765867,-7.7472 3.650134,-2.107733 6.327466,4.536533 1.4688,2.056534 1.597867,4.027733 7.5914667,-2.034133 -0.6293334,-4.288 0.2442667,-2.514134 3.2106667,-7.093333 h 4.2154666 l 3.2106667,7.093333 0.2442667,2.514134 -0.6293334,4.288 7.5914667,2.034133 1.597867,-4.027733 1.4688,-2.056534 6.327466,-4.536533 3.650134,2.107733 -0.765867,7.7472 -1.045333,2.3008 -2.689067,3.397334 5.557333,5.557333 3.397334,-2.689067 2.3008,-1.045333 7.7472,-0.765867 2.107733,3.650134 -4.536533,6.327466 -2.056534,1.4688 -4.027733,1.597867 z"
         style="fill:none;stroke:#000000;stroke-width:1.06667"
         inkscape:connector-curvature="0" />
    </g>
  </g>
</svg>
